<svg xmlns="http://www.w3.org/2000/svg" width="769.818" height="700.011" viewBox="0 0 769.818 700.011">
  <g id="OverflowPrevention" transform="translate(-55.8 -125.8)">
    <g id="Layer_3" transform="translate(55.8 125.8)">
      <g id="Group_51" data-name="Group 51">
        <path id="Path_176" data-name="Path 176" d="M169.091,604.432c-53.578,0-113.291-43.872-113.291-97.45h0c0-53.578,43.872-97.45,97.45-97.45h0A41.358,41.358,0,0,0,194.482,368.3h0a41.358,41.358,0,0,0-41.232-41.232H120.793A43,43,0,0,1,77.93,284.205h0a43,43,0,0,1,42.863-42.863h42.63a16.769,16.769,0,0,0,16.695-16.695h0a16.769,16.769,0,0,0-16.695-16.695H152.4A11.516,11.516,0,0,1,140.9,196.461h0A11.516,11.516,0,0,1,152.4,184.969h74.311A18.161,18.161,0,0,0,244.8,166.877h0a18.161,18.161,0,0,0-18.092-18.092H204.5a11.516,11.516,0,0,1-11.492-11.492h0A11.516,11.516,0,0,1,204.5,125.8H693.38a15.046,15.046,0,0,1,14.986,14.986h0a15.046,15.046,0,0,1-14.986,14.986H670.629a23.7,23.7,0,0,0-23.605,23.605h0a23.7,23.7,0,0,0,23.605,23.605h88.132a15.045,15.045,0,0,1,14.986,14.986h0a15.045,15.045,0,0,1-14.986,14.986H744.318A21.806,21.806,0,0,0,722.577,254.7h0a21.806,21.806,0,0,0,21.742,21.742h19.645a56.072,56.072,0,0,1,55.908,55.908h0a56.072,56.072,0,0,1-55.908,55.908H757.6a53.9,53.9,0,0,0-53.733,53.733h0A53.9,53.9,0,0,0,757.6,495.722h13.822a54.349,54.349,0,0,1,54.2,54.2h0a54.349,54.349,0,0,1-54.2,54.2c-154.367.311-448.116.311-602.328.311Zm562.649-448.5a14.986,14.986,0,1,0-14.986-14.986,15,15,0,0,0,14.986,14.986Zm-611.645,52.18A11.492,11.492,0,1,0,108.6,196.616,11.466,11.466,0,0,0,120.094,208.109Z" transform="translate(-55.8 -125.8)" fill="#d5e9e5" fill-rule="evenodd"/>
        <g id="Group_44" data-name="Group 44" transform="translate(40.533 364.953)">
          <path id="Path_177" data-name="Path 177" d="M219.039,595.8a45.434,45.434,0,0,1,45.425,45.425c0,1.087,0,2.1-.078,3.106a40.4,40.4,0,0,1,32.846,29.352,22.016,22.016,0,0,1,11.647,4.581,28.406,28.406,0,0,1,49.23,19.335,28.771,28.771,0,0,1-2.562,11.8H109.708A39.307,39.307,0,0,1,108,697.676,40.4,40.4,0,0,1,148.378,657.3a34.859,34.859,0,0,1,4.97.311,25.2,25.2,0,0,1,20.344-15.452v-.932A45.268,45.268,0,0,1,219.039,595.8Z" transform="translate(-108 -595.8)" fill="#96c9b3" fill-rule="evenodd"/>
          <g id="Group_43" data-name="Group 43" transform="translate(11.57 8.619)">
            <path id="Path_178" data-name="Path 178" d="M144.254,695.666a21.963,21.963,0,0,1,8.464,1.708,14.833,14.833,0,0,1,13.433-8.541,13.676,13.676,0,0,1,2.562.233,23.726,23.726,0,0,1,23.45-19.8,24.211,24.211,0,0,1,7.92,1.32,34.313,34.313,0,0,1,63.129,18.636,35.879,35.879,0,0,1-.854,7.687,11.756,11.756,0,0,1,2.329-.155,14.769,14.769,0,0,1,11.259,5.2,19.33,19.33,0,0,1,10.638-3.261,19.035,19.035,0,0,1,17.083,10.56,15.081,15.081,0,0,1,1.864-.155A12.991,12.991,0,0,1,318.5,722.067v.621H123.676a22.693,22.693,0,0,1-.776-5.668A21.342,21.342,0,0,1,144.254,695.666Z" transform="translate(-122.9 -617.628)" fill="#88c2a9" fill-rule="evenodd"/>
            <g id="Group_42" data-name="Group 42" transform="translate(1.398)">
              <path id="Path_179" data-name="Path 179" d="M399.823,720.445a6.523,6.523,0,1,0-6.523-6.523A6.562,6.562,0,0,0,399.823,720.445Z" transform="translate(-184.733 -629.362)" fill="#88c2a9" fill-rule="evenodd"/>
              <path id="Path_180" data-name="Path 180" d="M331.2,702.107a4.5,4.5,0,1,0-4.5-4.5A4.507,4.507,0,0,0,331.2,702.107Z" transform="translate(-169.848 -626.166)" fill="#88c2a9" fill-rule="evenodd"/>
              <path id="Path_181" data-name="Path 181" d="M251.723,619.945a6.523,6.523,0,1,0-6.523-6.523A6.562,6.562,0,0,0,251.723,619.945Z" transform="translate(-151.632 -606.9)" fill="#88c2a9" fill-rule="evenodd"/>
              <path id="Path_182" data-name="Path 182" d="M218.123,638.345a6.523,6.523,0,1,0-6.523-6.523A6.562,6.562,0,0,0,218.123,638.345Z" transform="translate(-144.123 -611.012)" fill="#88c2a9" fill-rule="evenodd"/>
              <path id="Path_183" data-name="Path 183" d="M130.058,702.916a5.358,5.358,0,1,0-5.358-5.358A5.369,5.369,0,0,0,130.058,702.916Z" transform="translate(-124.7 -625.965)" fill="#88c2a9" fill-rule="evenodd"/>
              <path id="Path_184" data-name="Path 184" d="M261.738,642.876a4.038,4.038,0,1,0-4.038-4.038A4.111,4.111,0,0,0,261.738,642.876Z" transform="translate(-154.426 -613.136)" fill="#88c2a9" fill-rule="evenodd"/>
              <path id="Path_185" data-name="Path 185" d="M244.218,638.238a2.019,2.019,0,1,0-2.019-2.019A1.958,1.958,0,0,0,244.218,638.238Z" transform="translate(-150.961 -613.002)" fill="#88c2a9" fill-rule="evenodd"/>
              <path id="Path_186" data-name="Path 186" d="M210.219,651.238a2.019,2.019,0,1,0-2.019-2.019A2,2,0,0,0,210.219,651.238Z" transform="translate(-143.363 -615.907)" fill="#88c2a9" fill-rule="evenodd"/>
              <path id="Path_187" data-name="Path 187" d="M151.318,694.938a2.019,2.019,0,1,0-2.019-2.019A1.958,1.958,0,0,0,151.318,694.938Z" transform="translate(-130.197 -625.674)" fill="#88c2a9" fill-rule="evenodd"/>
              <path id="Path_188" data-name="Path 188" d="M289.119,641.438a2.019,2.019,0,1,0-2.019-2.019A2,2,0,0,0,289.119,641.438Z" transform="translate(-160.997 -613.717)" fill="#88c2a9" fill-rule="evenodd"/>
              <path id="Path_189" data-name="Path 189" d="M313.719,682.938a2.019,2.019,0,1,0-2.019-2.019A2.056,2.056,0,0,0,313.719,682.938Z" transform="translate(-166.495 -622.992)" fill="#88c2a9" fill-rule="evenodd"/>
              <path id="Path_190" data-name="Path 190" d="M303.884,669.467a3.184,3.184,0,1,0-3.184-3.184A3.249,3.249,0,0,0,303.884,669.467Z" transform="translate(-164.037 -619.461)" fill="#88c2a9" fill-rule="evenodd"/>
              <path id="Path_191" data-name="Path 191" d="M201.784,666.067a3.184,3.184,0,1,0-3.184-3.184A3.2,3.2,0,0,0,201.784,666.067Z" transform="translate(-141.217 -618.701)" fill="#88c2a9" fill-rule="evenodd"/>
              <path id="Path_192" data-name="Path 192" d="M172.884,688.867a3.184,3.184,0,1,0-3.184-3.184A3.249,3.249,0,0,0,172.884,688.867Z" transform="translate(-134.758 -623.797)" fill="#88c2a9" fill-rule="evenodd"/>
            </g>
          </g>
        </g>
        <g id="Group_47" data-name="Group 47" transform="translate(179.06 364.953)">
          <path id="Path_193" data-name="Path 193" d="M397.439,595.8a45.434,45.434,0,0,1,45.425,45.425c0,1.087,0,2.1-.078,3.106a40.4,40.4,0,0,1,32.846,29.352,22.017,22.017,0,0,1,11.647,4.581,28.407,28.407,0,0,1,49.23,19.335,28.771,28.771,0,0,1-2.562,11.8H288.108a39.307,39.307,0,0,1-1.708-11.725A40.4,40.4,0,0,1,326.778,657.3a34.859,34.859,0,0,1,4.97.311,25.2,25.2,0,0,1,20.344-15.452v-.932A45.219,45.219,0,0,1,397.439,595.8Z" transform="translate(-286.4 -595.8)" fill="#96c9b3" fill-rule="evenodd"/>
          <g id="Group_46" data-name="Group 46" transform="translate(11.492 8.619)">
            <path id="Path_194" data-name="Path 194" d="M322.631,695.666a21.963,21.963,0,0,1,8.464,1.708,14.833,14.833,0,0,1,13.433-8.541,13.677,13.677,0,0,1,2.562.233,23.726,23.726,0,0,1,23.45-19.8,24.211,24.211,0,0,1,7.92,1.32,34.313,34.313,0,0,1,63.129,18.636,35.877,35.877,0,0,1-.854,7.687,11.756,11.756,0,0,1,2.33-.155,14.769,14.769,0,0,1,11.259,5.2,19.33,19.33,0,0,1,10.638-3.261,19.035,19.035,0,0,1,17.083,10.56,15.08,15.08,0,0,1,1.864-.155,12.991,12.991,0,0,1,12.967,12.968v.621h-194.9a22.694,22.694,0,0,1-.776-5.668A21.458,21.458,0,0,1,322.631,695.666Z" transform="translate(-301.2 -617.628)" fill="#88c2a9" fill-rule="evenodd"/>
            <g id="Group_45" data-name="Group 45" transform="translate(1.475)">
              <path id="Path_195" data-name="Path 195" d="M578.123,720.445a6.523,6.523,0,1,0-6.523-6.523A6.562,6.562,0,0,0,578.123,720.445Z" transform="translate(-363.111 -629.362)" fill="#88c2a9" fill-rule="evenodd"/>
              <path id="Path_196" data-name="Path 196" d="M509.6,702.107a4.5,4.5,0,1,0-4.5-4.5A4.507,4.507,0,0,0,509.6,702.107Z" transform="translate(-348.248 -626.166)" fill="#88c2a9" fill-rule="evenodd"/>
              <path id="Path_197" data-name="Path 197" d="M430.123,619.945a6.523,6.523,0,1,0-6.523-6.523A6.562,6.562,0,0,0,430.123,619.945Z" transform="translate(-330.032 -606.9)" fill="#88c2a9" fill-rule="evenodd"/>
              <path id="Path_198" data-name="Path 198" d="M396.523,638.345A6.523,6.523,0,1,0,390,631.823,6.562,6.562,0,0,0,396.523,638.345Z" transform="translate(-322.523 -611.012)" fill="#88c2a9" fill-rule="evenodd"/>
              <path id="Path_199" data-name="Path 199" d="M308.458,702.916a5.358,5.358,0,1,0-5.358-5.358A5.369,5.369,0,0,0,308.458,702.916Z" transform="translate(-303.1 -625.965)" fill="#88c2a9" fill-rule="evenodd"/>
              <circle id="Ellipse_12" data-name="Ellipse 12" cx="4.038" cy="4.038" r="4.038" transform="translate(103.274 21.664)" fill="#88c2a9"/>
              <path id="Path_200" data-name="Path 200" d="M422.519,638.238a2.019,2.019,0,1,0-2.019-2.019A2.056,2.056,0,0,0,422.519,638.238Z" transform="translate(-329.339 -613.002)" fill="#88c2a9" fill-rule="evenodd"/>
              <path id="Path_201" data-name="Path 201" d="M388.519,651.238a2.019,2.019,0,1,0-2.019-2.019A2.056,2.056,0,0,0,388.519,651.238Z" transform="translate(-321.74 -615.907)" fill="#88c2a9" fill-rule="evenodd"/>
              <path id="Path_202" data-name="Path 202" d="M329.619,694.938a2.019,2.019,0,1,0-2.019-2.019A2.056,2.056,0,0,0,329.619,694.938Z" transform="translate(-308.576 -625.674)" fill="#88c2a9" fill-rule="evenodd"/>
              <path id="Path_203" data-name="Path 203" d="M467.519,641.438a2.019,2.019,0,1,0-2.019-2.019A2,2,0,0,0,467.519,641.438Z" transform="translate(-339.397 -613.717)" fill="#88c2a9" fill-rule="evenodd"/>
              <path id="Path_204" data-name="Path 204" d="M492.119,682.938a2.019,2.019,0,1,0-2.019-2.019A2.056,2.056,0,0,0,492.119,682.938Z" transform="translate(-344.895 -622.992)" fill="#88c2a9" fill-rule="evenodd"/>
              <path id="Path_205" data-name="Path 205" d="M482.284,669.467a3.184,3.184,0,1,0-3.184-3.184A3.249,3.249,0,0,0,482.284,669.467Z" transform="translate(-342.437 -619.461)" fill="#88c2a9" fill-rule="evenodd"/>
              <path id="Path_206" data-name="Path 206" d="M380.184,666.067A3.184,3.184,0,1,0,377,662.884,3.149,3.149,0,0,0,380.184,666.067Z" transform="translate(-319.617 -618.701)" fill="#88c2a9" fill-rule="evenodd"/>
              <path id="Path_207" data-name="Path 207" d="M351.284,688.867a3.184,3.184,0,1,0-3.184-3.184A3.249,3.249,0,0,0,351.284,688.867Z" transform="translate(-313.158 -623.797)" fill="#88c2a9" fill-rule="evenodd"/>
            </g>
          </g>
        </g>
        <g id="Group_50" data-name="Group 50" transform="translate(413.018 364.953)">
          <path id="Path_208" data-name="Path 208" d="M698.739,595.8a45.434,45.434,0,0,1,45.425,45.425c0,1.087,0,2.1-.078,3.106a40.4,40.4,0,0,1,32.846,29.352,22.016,22.016,0,0,1,11.647,4.581,28.407,28.407,0,0,1,49.23,19.335,28.772,28.772,0,0,1-2.562,11.8H589.408a39.307,39.307,0,0,1-1.708-11.725A40.4,40.4,0,0,1,628.078,657.3a34.859,34.859,0,0,1,4.97.311,25.2,25.2,0,0,1,20.344-15.452v-.932A45.219,45.219,0,0,1,698.739,595.8Z" transform="translate(-587.7 -595.8)" fill="#96c9b3" fill-rule="evenodd"/>
          <g id="Group_49" data-name="Group 49" transform="translate(11.492 8.619)">
            <path id="Path_209" data-name="Path 209" d="M623.931,695.666a21.963,21.963,0,0,1,8.464,1.708,14.833,14.833,0,0,1,13.433-8.541,13.676,13.676,0,0,1,2.562.233,23.726,23.726,0,0,1,23.45-19.8,24.212,24.212,0,0,1,7.92,1.32,34.313,34.313,0,0,1,63.129,18.636,35.885,35.885,0,0,1-.854,7.687,11.756,11.756,0,0,1,2.329-.155,14.769,14.769,0,0,1,11.259,5.2,19.33,19.33,0,0,1,10.638-3.261,19.035,19.035,0,0,1,17.083,10.56,15.08,15.08,0,0,1,1.864-.155,12.991,12.991,0,0,1,12.968,12.968v.621h-194.9a22.7,22.7,0,0,1-.776-5.668A21.458,21.458,0,0,1,623.931,695.666Z" transform="translate(-602.5 -617.628)" fill="#88c2a9" fill-rule="evenodd"/>
            <g id="Group_48" data-name="Group 48" transform="translate(1.475)">
              <path id="Path_210" data-name="Path 210" d="M879.423,720.445a6.523,6.523,0,1,0-6.523-6.523A6.562,6.562,0,0,0,879.423,720.445Z" transform="translate(-664.411 -629.362)" fill="#88c2a9" fill-rule="evenodd"/>
              <path id="Path_211" data-name="Path 211" d="M810.9,702.107a4.5,4.5,0,1,0-4.5-4.5A4.507,4.507,0,0,0,810.9,702.107Z" transform="translate(-649.548 -626.166)" fill="#88c2a9" fill-rule="evenodd"/>
              <path id="Path_212" data-name="Path 212" d="M731.423,619.945a6.523,6.523,0,1,0-6.523-6.523A6.562,6.562,0,0,0,731.423,619.945Z" transform="translate(-631.332 -606.9)" fill="#88c2a9" fill-rule="evenodd"/>
              <path id="Path_213" data-name="Path 213" d="M697.823,638.345a6.523,6.523,0,1,0-6.523-6.523A6.562,6.562,0,0,0,697.823,638.345Z" transform="translate(-623.823 -611.012)" fill="#88c2a9" fill-rule="evenodd"/>
              <path id="Path_214" data-name="Path 214" d="M609.758,702.916a5.358,5.358,0,1,0-5.358-5.358A5.369,5.369,0,0,0,609.758,702.916Z" transform="translate(-604.4 -625.965)" fill="#88c2a9" fill-rule="evenodd"/>
              <path id="Path_215" data-name="Path 215" d="M741.438,642.876a4.038,4.038,0,1,0-4.038-4.038A4.06,4.06,0,0,0,741.438,642.876Z" transform="translate(-634.126 -613.136)" fill="#88c2a9" fill-rule="evenodd"/>
              <path id="Path_216" data-name="Path 216" d="M723.819,638.238a2.019,2.019,0,1,0-2.019-2.019A2.056,2.056,0,0,0,723.819,638.238Z" transform="translate(-630.639 -613.002)" fill="#88c2a9" fill-rule="evenodd"/>
              <path id="Path_217" data-name="Path 217" d="M689.819,651.238a2.019,2.019,0,1,0-2.019-2.019A2.056,2.056,0,0,0,689.819,651.238Z" transform="translate(-623.04 -615.907)" fill="#88c2a9" fill-rule="evenodd"/>
              <path id="Path_218" data-name="Path 218" d="M630.919,694.938a2.019,2.019,0,1,0-2.019-2.019A2.056,2.056,0,0,0,630.919,694.938Z" transform="translate(-609.876 -625.674)" fill="#88c2a9" fill-rule="evenodd"/>
              <path id="Path_219" data-name="Path 219" d="M768.819,641.438a2.019,2.019,0,1,0-2.019-2.019A2,2,0,0,0,768.819,641.438Z" transform="translate(-640.697 -613.717)" fill="#88c2a9" fill-rule="evenodd"/>
              <path id="Path_220" data-name="Path 220" d="M793.419,682.938a2.019,2.019,0,1,0-2.019-2.019A2.056,2.056,0,0,0,793.419,682.938Z" transform="translate(-646.195 -622.992)" fill="#88c2a9" fill-rule="evenodd"/>
              <path id="Path_221" data-name="Path 221" d="M783.584,669.467a3.184,3.184,0,1,0-3.184-3.184A3.2,3.2,0,0,0,783.584,669.467Z" transform="translate(-643.737 -619.461)" fill="#88c2a9" fill-rule="evenodd"/>
              <path id="Path_222" data-name="Path 222" d="M681.484,666.067a3.184,3.184,0,1,0-3.184-3.184A3.149,3.149,0,0,0,681.484,666.067Z" transform="translate(-620.917 -618.701)" fill="#88c2a9" fill-rule="evenodd"/>
              <path id="Path_223" data-name="Path 223" d="M652.584,688.867a3.184,3.184,0,1,0-3.184-3.184A3.2,3.2,0,0,0,652.584,688.867Z" transform="translate(-614.458 -623.797)" fill="#88c2a9" fill-rule="evenodd"/>
            </g>
          </g>
        </g>
        <path id="Path_224" data-name="Path 224" d="M793.321,758.1H775.306a5.037,5.037,0,0,0-5.047,5.047h0a5.037,5.037,0,0,0,5.047,5.047h7.532a3.977,3.977,0,0,1,3.96,3.96h0a3.977,3.977,0,0,1-3.96,3.96H116.916a3.977,3.977,0,0,1-3.96-3.96h0a3.977,3.977,0,0,1,3.96-3.96h7.221a5.037,5.037,0,0,0,5.047-5.047h0a5.037,5.037,0,0,0-5.047-5.047H107.6a7.987,7.987,0,0,1-8-8h0a7.987,7.987,0,0,1,8-8H793.321a7.987,7.987,0,0,1,8,8h0a8.036,8.036,0,0,1-8,8Zm.311,18.092a3.96,3.96,0,1,0-3.96-3.96A3.88,3.88,0,0,0,793.632,776.188Z" transform="translate(-65.59 -263.546)" fill="#367159" fill-rule="evenodd"/>
      </g>
    </g>
    <g id="Layer_5" transform="translate(340.463 351.76)">
      <path id="Path_225" data-name="Path 225" d="M422.4,416.8l13.589,259.738a13.1,13.1,0,0,0,13.045,12.657H609.458A13.046,13.046,0,0,0,622.5,676.538L636.091,416.8Z" transform="translate(-422.4 -416.8)" fill="#3b455a"/>
      <g id="Group_91" data-name="Group 91" transform="translate(13.666 157.085)">
        <g id="Group_90" data-name="Group 90">
          <g id="Group_89" data-name="Group 89">
            <g id="Group_59" data-name="Group 59" transform="translate(71.241)">
              <g id="Group_58" data-name="Group 58">
                <path id="Path_226" data-name="Path 226" d="M561.728,683.388a5.092,5.092,0,0,1-1.32-3.417l.078-14.521a4.428,4.428,0,0,0-.078-1.009l-2.1-16.073v-.233A13.357,13.357,0,0,0,555.826,642l-7.377-10.094-.388-3.106-5.513.7-5.513.7.388,3.106-4.581,11.647a13.415,13.415,0,0,0-.776,6.523v.233l2.1,16.073a4.739,4.739,0,0,0,.233,1.009l3.727,14.055a5.348,5.348,0,0,1-.388,3.65,7.069,7.069,0,0,0-1.009,4.115c.311,2.407.854,6.367.854,6.367s.854,4.659,4.5,4.193l9.706-1.242,9.706-1.242c3.65-.466,3.261-5.2,3.261-5.2s-.544-3.96-.854-6.367A10.032,10.032,0,0,0,561.728,683.388Z" transform="translate(-531.791 -621.268)" fill="#cdcdcd"/>
                <path id="Path_227" data-name="Path 227" d="M550.036,630.776l-11.725,1.553c-.155,0-.233-.078-.233-.155l-.078-.388c0-.155.078-.233.155-.233L549.88,630c.155,0,.233.078.233.155l.078.388C550.191,630.7,550.113,630.776,550.036,630.776Z" transform="translate(-533.144 -621.536)" fill="#cdcdcd"/>
                <path id="Path_228" data-name="Path 228" d="M541.8,694.511s-.544-3.96-.854-6.367a8.5,8.5,0,0,1,1.009-4.115,5.4,5.4,0,0,0,.388-3.65l-3.8-14.055c-.078-.311-.155-.7-.233-1.009l-2.1-16.073v-.233a13.2,13.2,0,0,1,.776-6.523l4.581-11.647-.155-1.32-.311.078c-.155,0-.233-.078-.233-.155l-.078-.388c0-.155.078-.233.155-.233l.311-.078-.155-.932-.311-2.252v-.233l-.078-.311-.466-3.572-.078-.776a.524.524,0,0,1,.311-.466l-4.348.544a.342.342,0,0,0-.311.466l.078.776.466,3.572.078.311v.233l.311,2.252.155.932-.311.078c-.155,0-.233.155-.155.233l.078.388c0,.155.155.233.233.155l.311-.078.155,1.32-4.581,11.647a13.415,13.415,0,0,0-.776,6.523v.233l2.1,16.073a4.743,4.743,0,0,0,.233,1.009l3.727,14.055a5.347,5.347,0,0,1-.388,3.65,7.07,7.07,0,0,0-1.009,4.115c.311,2.407.854,6.367.854,6.367s.854,4.659,4.5,4.193l4.348-.544C542.659,699.17,541.8,694.511,541.8,694.511Z" transform="translate(-531.747 -619.346)" fill="#868686" opacity="0.4"/>
                <path id="Path_229" data-name="Path 229" d="M543.625,719.887l9.706-1.242,9.706-1.242c3.65-.466,3.261-5.2,3.261-5.2l-27.1,3.494C539.121,715.617,539.975,720.353,543.625,719.887Z" transform="translate(-533.411 -639.908)" fill="#868686" opacity="0.4"/>
                <path id="Path_230" data-name="Path 230" d="M563.394,698.117a5.092,5.092,0,0,1-1.32-3.417l-22.285,2.873a5.347,5.347,0,0,1-.388,3.65Z" transform="translate(-533.457 -635.997)" fill="#868686" opacity="0.4"/>
                <g id="Group_57" data-name="Group 57" transform="translate(4.234)">
                  <g id="Group_56" data-name="Group 56">
                    <path id="Path_231" data-name="Path 231" d="M548.925,624.147l-11.1,1.4-.621-4.659a.524.524,0,0,1,.311-.466l10.327-1.32a.524.524,0,0,1,.466.311Z" transform="translate(-537.2 -619.1)" fill="#eaeaea"/>
                    <rect id="Rectangle_7" data-name="Rectangle 7" width="11.182" height="2.562" transform="translate(0.652 6.462) rotate(-7.377)" fill="#eaeaea"/>
                    <path id="Path_232" data-name="Path 232" d="M549.1,625.6,538,627l.078.233,11.1-1.4Z" transform="translate(-537.379 -620.553)" fill="#c6c6c6"/>
                    <rect id="Rectangle_8" data-name="Rectangle 8" width="11.182" height="3.65" transform="translate(0.095 2.53) rotate(-7.377)" fill="#c6c6c6"/>
                    <g id="Group_53" data-name="Group 53" transform="translate(0.406 1.165)">
                      <g id="Group_52" data-name="Group 52">
                        <rect id="Rectangle_9" data-name="Rectangle 9" width="0.155" height="3.65" transform="translate(0 1.315) rotate(-7.337)" fill="#eaeaea"/>
                        <rect id="Rectangle_10" data-name="Rectangle 10" width="0.155" height="3.65" transform="matrix(0.992, -0.13, 0.13, 0.992, 0.288, 1.288)" fill="#eaeaea"/>
                        <rect id="Rectangle_11" data-name="Rectangle 11" width="0.155" height="3.65" transform="translate(0.6 1.268) rotate(-7.429)" fill="#eaeaea"/>
                        <path id="Path_233" data-name="Path 233" d="M539.521,625.75h-.155l-.466-3.572.155-.078Z" transform="translate(-537.986 -620.935)" fill="#eaeaea"/>
                        <path id="Path_234" data-name="Path 234" d="M539.921,625.672l-.155.078-.466-3.65h.155Z" transform="translate(-538.076 -620.935)" fill="#eaeaea"/>
                        <path id="Path_235" data-name="Path 235" d="M540.321,625.65h-.155l-.466-3.572.155-.078Z" transform="translate(-538.165 -620.913)" fill="#eaeaea"/>
                        <rect id="Rectangle_12" data-name="Rectangle 12" width="0.155" height="3.65" transform="translate(1.826 1.127) rotate(-7.47)" fill="#eaeaea"/>
                        <path id="Path_236" data-name="Path 236" d="M541.221,625.55h-.155l-.466-3.572.155-.078Z" transform="translate(-538.366 -620.891)" fill="#eaeaea"/>
                        <path id="Path_237" data-name="Path 237" d="M541.621,625.472h-.155L541,621.9h.155Z" transform="translate(-538.455 -620.891)" fill="#eaeaea"/>
                        <rect id="Rectangle_13" data-name="Rectangle 13" width="0.155" height="3.65" transform="translate(2.873 0.934) rotate(-7.342)" fill="#eaeaea"/>
                        <rect id="Rectangle_14" data-name="Rectangle 14" width="0.155" height="3.65" transform="translate(3.191 0.943) rotate(-7.348)" fill="#eaeaea"/>
                        <rect id="Rectangle_15" data-name="Rectangle 15" width="0.155" height="3.65" transform="translate(3.497 0.867) rotate(-7.348)" fill="#eaeaea"/>
                        <rect id="Rectangle_16" data-name="Rectangle 16" width="0.155" height="3.65" transform="translate(3.766 0.866) rotate(-7.458)" fill="#eaeaea"/>
                        <path id="Path_238" data-name="Path 238" d="M543.621,625.172l-.155.078L543,621.6h.155Z" transform="translate(-538.902 -620.823)" fill="#eaeaea"/>
                        <path id="Path_239" data-name="Path 239" d="M544.021,625.172h-.155L543.4,621.6h.155Z" transform="translate(-538.992 -620.823)" fill="#eaeaea"/>
                        <rect id="Rectangle_17" data-name="Rectangle 17" width="0.155" height="3.65" transform="translate(4.735 0.75) rotate(-7.452)" fill="#eaeaea"/>
                        <rect id="Rectangle_18" data-name="Rectangle 18" width="0.155" height="3.65" transform="matrix(0.992, -0.129, 0.129, 0.992, 5.016, 0.615)" fill="#eaeaea"/>
                        <path id="Path_240" data-name="Path 240" d="M545.221,624.972l-.155.078-.466-3.65h.155Z" transform="translate(-539.26 -620.779)" fill="#eaeaea"/>
                        <path id="Path_241" data-name="Path 241" d="M545.621,624.95h-.155L545,621.378l.155-.078Z" transform="translate(-539.349 -620.756)" fill="#eaeaea"/>
                        <rect id="Rectangle_19" data-name="Rectangle 19" width="0.155" height="3.65" transform="translate(5.98 0.543) rotate(-7.337)" fill="#eaeaea"/>
                        <rect id="Rectangle_20" data-name="Rectangle 20" width="0.155" height="3.65" transform="translate(6.368 0.475) rotate(-7.348)" fill="#eaeaea"/>
                        <rect id="Rectangle_21" data-name="Rectangle 21" width="0.155" height="3.65" transform="translate(6.636 0.475) rotate(-7.458)" fill="#eaeaea"/>
                        <path id="Path_242" data-name="Path 242" d="M547.321,624.75h-.155l-.466-3.572.155-.078Z" transform="translate(-539.729 -620.712)" fill="#eaeaea"/>
                        <path id="Path_243" data-name="Path 243" d="M547.721,624.672h-.155L547.1,621.1h.155Z" transform="translate(-539.819 -620.712)" fill="#eaeaea"/>
                        <path id="Path_244" data-name="Path 244" d="M548.121,624.65h-.155l-.466-3.572.155-.078Z" transform="translate(-539.908 -620.689)" fill="#eaeaea"/>
                        <rect id="Rectangle_22" data-name="Rectangle 22" width="0.155" height="3.65" transform="translate(7.882 0.345) rotate(-7.47)" fill="#eaeaea"/>
                        <path id="Path_245" data-name="Path 245" d="M548.921,624.55h-.155l-.466-3.572.155-.078Z" transform="translate(-540.087 -620.667)" fill="#eaeaea"/>
                        <rect id="Rectangle_23" data-name="Rectangle 23" width="0.155" height="3.65" transform="translate(8.549 0.247) rotate(-7.348)" fill="#eaeaea"/>
                        <rect id="Rectangle_24" data-name="Rectangle 24" width="0.155" height="3.65" transform="translate(8.85 0.152) rotate(-7.337)" fill="#eaeaea"/>
                        <rect id="Rectangle_25" data-name="Rectangle 25" width="0.155" height="3.65" transform="translate(9.171 0.171) rotate(-7.348)" fill="#eaeaea"/>
                        <rect id="Rectangle_26" data-name="Rectangle 26" width="0.155" height="3.65" transform="translate(9.479 0.104) rotate(-7.354)" fill="#eaeaea"/>
                        <rect id="Rectangle_27" data-name="Rectangle 27" width="0.155" height="3.65" transform="translate(9.788 0.076) rotate(-7.337)" fill="#eaeaea"/>
                        <path id="Path_246" data-name="Path 246" d="M551.321,624.172l-.155.078-.466-3.65h.155Z" transform="translate(-540.623 -620.6)" fill="#eaeaea"/>
                        <path id="Path_247" data-name="Path 247" d="M551.821,624.172h-.155L551.2,620.6h.155Z" transform="translate(-540.735 -620.6)" fill="#eaeaea"/>
                      </g>
                    </g>
                    <g id="Group_55" data-name="Group 55" transform="translate(1.366 5.125)">
                      <g id="Group_54" data-name="Group 54">
                        <rect id="Rectangle_28" data-name="Rectangle 28" width="0.311" height="0.233" transform="translate(0 1.242) rotate(-7.458)" fill="#eaeaea"/>
                        <path id="Path_248" data-name="Path 248" d="M542.311,627.133H542V626.9h.311Z" transform="translate(-539.639 -625.968)" fill="#eaeaea"/>
                        <rect id="Rectangle_29" data-name="Rectangle 29" width="0.311" height="0.233" transform="translate(4.683 0.607) rotate(-7.464)" fill="#eaeaea"/>
                        <path id="Path_249" data-name="Path 249" d="M548.311,626.333l-.311.078V626.1h.311Z" transform="translate(-540.98 -625.789)" fill="#eaeaea"/>
                        <path id="Path_250" data-name="Path 250" d="M551.388,625.933l-.388.078v-.233l.311-.078Z" transform="translate(-541.651 -625.7)" fill="#eaeaea"/>
                      </g>
                    </g>
                  </g>
                </g>
                <path id="Path_251" data-name="Path 251" d="M542.264,625.225l-.078-.311-.466-3.572-.078-.776a.524.524,0,0,1,.311-.466l-4.348.544a.342.342,0,0,0-.311.466l.078.776.466,3.572.078.311V626l.311,2.252,4.348-.544-.311-2.252Z" transform="translate(-532.982 -619.323)" opacity="0.1"/>
              </g>
              <rect id="Rectangle_30" data-name="Rectangle 30" width="26.478" height="16.384" transform="matrix(0.992, -0.129, 0.129, 0.992, 0.287, 30.248)" fill="#898989"/>
              <path id="Path_252" data-name="Path 252" d="M536.448,657.533V657.3h0l-4.348.621h0v.155l2.1,16.073,4.348-.621Z" transform="translate(-531.826 -627.638)" opacity="0.1"/>
            </g>
            <g id="Group_60" data-name="Group 60" transform="translate(125.224 26.158)">
              <path id="Path_253" data-name="Path 253" d="M629.576,662.53l-25.7-4.193a2.154,2.154,0,0,1-1.786-2.562h0a2.154,2.154,0,0,1,2.562-1.786l25.7,4.193a2.21,2.21,0,0,1,1.786,2.562h0A2.226,2.226,0,0,1,629.576,662.53Z" transform="translate(-601.442 -653.046)" fill="#7f7f7f"/>
              <path id="Path_254" data-name="Path 254" d="M617.849,684.891l-9.784-1.631a7.971,7.971,0,0,1-6.6-9.24l2.407-14.521,25.7,4.193-2.407,14.52A8.226,8.226,0,0,1,617.849,684.891Z" transform="translate(-601.285 -654.288)" fill="#656565"/>
              <path id="Path_255" data-name="Path 255" d="M631.529,657.478,603.653,652.9a1.076,1.076,0,0,0-1.242.854l-.311,1.708,30.05,4.97.311-1.708A1.074,1.074,0,0,0,631.529,657.478Z" transform="translate(-601.454 -652.81)" fill="#a6a6a6"/>
              <path id="Path_256" data-name="Path 256" d="M613.421,659.955a.776.776,0,0,1-1.242-.233l-1.32-2.562-1.087-2.174a.741.741,0,0,1,.776-1.087l3.106.544,3.106.544a.763.763,0,0,1,.388,1.32l-1.708,1.708Z" transform="translate(-603.147 -653.034)" fill="#a6a6a6"/>
              <rect id="Rectangle_31" data-name="Rectangle 31" width="9.007" height="8.93" transform="matrix(0.162, -0.987, 0.987, 0.162, 0.306, 18.488)" fill="#a6a6a6"/>
              <rect id="Rectangle_32" data-name="Rectangle 32" width="2.097" height="10.327" transform="matrix(0.162, -0.987, 0.987, 0.162, 13.72, 15.376)" fill="#a6a6a6"/>
              <rect id="Rectangle_33" data-name="Rectangle 33" width="2.097" height="10.327" transform="translate(13.057 19.178) rotate(-80.659)" fill="#a6a6a6"/>
              <path id="Path_257" data-name="Path 257" d="M607.039,673.452l.233-1.242,1.475-8.852.7-4.426a2.21,2.21,0,0,1-1.786-2.562l.311-1.708a1.074,1.074,0,0,1,1.242-.932l-5.668-.932a1.077,1.077,0,0,0-1.242.854l-.311,1.708a2.251,2.251,0,0,0,1.786,2.562l-.7,4.426L601.6,671.2l-.233,1.242a8.069,8.069,0,0,0,6.6,9.24l5.668.932A7.911,7.911,0,0,1,607.039,673.452Z" transform="translate(-601.268 -652.787)" opacity="0.2"/>
            </g>
            <g id="Group_61" data-name="Group 61" transform="translate(88.153 20.449)">
              <path id="Path_258" data-name="Path 258" d="M568.013,671l-1.32,2.718a3.95,3.95,0,0,0,.078,3.494l13.123,2.019,1.009-6.212Z" transform="translate(-556.386 -651.148)" fill="#cdcdcd"/>
              <path id="Path_259" data-name="Path 259" d="M564.995,687.4l-.7,1.009a3.766,3.766,0,0,0-.621,1.631l-.388,2.485a4.831,4.831,0,0,0,.7,3.261h0a2.146,2.146,0,0,0,1.475.932L576.72,698.5l1.4-9.007Z" transform="translate(-555.697 -654.814)" fill="#cdcdcd"/>
              <path id="Path_260" data-name="Path 260" d="M565.483,678.8a.877.877,0,0,0-1.009.776l-.776,4.737a.877.877,0,0,0,.776,1.009l13.666,2.174,1.009-6.523Z" transform="translate(-555.797 -652.888)" fill="#cdcdcd"/>
              <path id="Path_261" data-name="Path 261" d="M563.312,699.293h0a1.391,1.391,0,0,0-1.631,1.32c-.155,2.252-.388,6.6-.932,9.861-.7,4.659-5.125,15.685-6.057,22.052l-1.009,6.367a4.282,4.282,0,0,0,3.65,4.97l10.25,1.631,6.911-44.416Z" transform="translate(-553.549 -657.467)" fill="#cdcdcd"/>
              <path id="Path_262" data-name="Path 262" d="M597.888,678.57l-.466-2.951L584.609,673.6l-1.009,6.212,13.123,2.019A3.754,3.754,0,0,0,597.888,678.57Z" transform="translate(-560.248 -651.73)" fill="#cdcdcd"/>
              <path id="Path_263" data-name="Path 263" d="M595.409,693.284l-.388-1.165L581.9,690.1l-1.4,9.007,11.259,1.786a2.311,2.311,0,0,0,1.708-.466h0a4.6,4.6,0,0,0,1.708-2.873l.388-2.485A4.4,4.4,0,0,0,595.409,693.284Z" transform="translate(-559.555 -655.417)" fill="#cdcdcd"/>
              <path id="Path_264" data-name="Path 264" d="M596.066,690.3,582.4,688.123l1.009-6.523,13.666,2.1a.935.935,0,0,1,.776,1.009l-.776,4.737A.861.861,0,0,1,596.066,690.3Z" transform="translate(-559.98 -653.518)" fill="#cdcdcd"/>
              <path id="Path_265" data-name="Path 265" d="M589.792,703.308h0a1.415,1.415,0,0,1,1.165,1.786c-.544,2.174-1.631,6.367-2.1,9.706-.7,4.659.078,16.462-.932,22.829L586.919,744a4.362,4.362,0,0,1-4.97,3.65l-10.25-1.631,6.911-44.416Z" transform="translate(-557.588 -657.988)" fill="#cdcdcd"/>
              <path id="Path_266" data-name="Path 266" d="M589.792,703.308h0a1.415,1.415,0,0,1,1.165,1.786c-.544,2.174-1.631,6.367-2.1,9.706-.7,4.659.078,16.462-.932,22.829L586.919,744a4.362,4.362,0,0,1-4.97,3.65l-10.25-1.631,6.911-44.416Z" transform="translate(-557.588 -657.988)" fill="#cdcdcd"/>
              <path id="Path_267" data-name="Path 267" d="M561.349,728.107l1.009-6.367c1.009-6.367,5.358-17.393,6.057-22.052.544-3.261.776-7.61.932-9.861a1.391,1.391,0,0,1,1.631-1.32,2.146,2.146,0,0,1-1.475-.932h0a4.36,4.36,0,0,1-.7-3.261l.388-2.485a4.7,4.7,0,0,1,.621-1.631l.7-1.009-.621-.078a.935.935,0,0,1-.776-1.009l.776-4.737a.935.935,0,0,1,1.009-.776l.621.078a3.95,3.95,0,0,1-.078-3.494l1.32-2.718h0l9.085-17.859a3.642,3.642,0,0,1,3.106-1.941c-.155-.078-.388-.078-.621-.155l-3.261-.544-3.261-.466a3.543,3.543,0,0,0-3.727,1.941L565,665.289h0l-1.32,2.718a3.95,3.95,0,0,0,.078,3.494l-.621-.078a.877.877,0,0,0-1.009.776l-.776,4.737a.877.877,0,0,0,.776,1.009l.621.078-.7,1.009a3.767,3.767,0,0,0-.621,1.631l-.388,2.485a4.831,4.831,0,0,0,.7,3.261h0a2.146,2.146,0,0,0,1.475.932,1.391,1.391,0,0,0-1.631,1.32c-.155,2.252-.388,6.6-.932,9.862-.7,4.659-5.125,15.685-6.057,22.052l-1.009,6.367a4.282,4.282,0,0,0,3.65,4.97l7.687,1.165A4.364,4.364,0,0,1,561.349,728.107Z" transform="translate(-553.526 -645.437)" fill="#868686" opacity="0.4"/>
              <path id="Path_268" data-name="Path 268" d="M592.793,683.067l-.621-.078L566,678.874l-.621-.078a.877.877,0,0,0-1.009.777l-.776,4.737a.877.877,0,0,0,.776,1.009l.621.078-.7,1.009a3.767,3.767,0,0,0-.621,1.631l-.388,2.485a4.831,4.831,0,0,0,.7,3.261h0a2.146,2.146,0,0,0,1.475.932,1.391,1.391,0,0,0-1.631,1.32c0,.311-.078.7-.078,1.165l25,3.882c.078-.388.233-.776.311-1.087a1.446,1.446,0,0,0-1.165-1.786,2.311,2.311,0,0,0,1.708-.466h0a4.6,4.6,0,0,0,1.708-2.873l.388-2.485a3.229,3.229,0,0,0-.155-1.708l-.388-1.165.621.078a.877.877,0,0,0,1.009-.776l.776-4.737A.877.877,0,0,0,592.793,683.067Z" transform="translate(-555.697 -652.888)" fill="#898989"/>
              <path id="Path_269" data-name="Path 269" d="M590.785,649.548a3.543,3.543,0,0,0-2.951-2.951l-3.261-.544-3.261-.466a3.543,3.543,0,0,0-3.727,1.941L568.5,665.389l12.812,2.019,12.812,2.019Z" transform="translate(-556.873 -645.46)" fill="#898989"/>
              <path id="Path_270" data-name="Path 270" d="M568.5,665.286h0l7.687,1.165h0l9.085-17.859a3.642,3.642,0,0,1,3.106-1.941h0c-.078,0-.155-.078-.311-.078h0c-.078,0-.233-.078-.311-.078h0l-3.261-.544-3.261-.466a2.552,2.552,0,0,0-1.32.078,1.1,1.1,0,0,0-.466.155c-.078.078-.233.078-.311.155-.155.078-.233.078-.311.155a2.908,2.908,0,0,0-1.009.932c-.078.155-.233.311-.311.466Z" transform="translate(-556.873 -645.434)" opacity="0.1"/>
              <path id="Path_271" data-name="Path 271" d="M571.673,695.048a4.36,4.36,0,0,1-.7-3.261l.388-2.485a4.7,4.7,0,0,1,.621-1.631l.7-1.009-.621-.078a.935.935,0,0,1-.776-1.009l.776-4.737a.935.935,0,0,1,1.009-.776L566,678.974l-.621-.078a.877.877,0,0,0-1.009.776l-.776,4.737a.877.877,0,0,0,.776,1.009l.621.078-.7,1.009a3.766,3.766,0,0,0-.621,1.631l-.388,2.485a4.831,4.831,0,0,0,.7,3.261h0a2.146,2.146,0,0,0,1.475.932,1.391,1.391,0,0,0-1.631,1.32v.311a2.642,2.642,0,0,1-.078.776h0l7.687,1.165c0-.388.078-.777.078-1.165a1.391,1.391,0,0,1,1.631-1.32,1.838,1.838,0,0,1-1.475-.854Z" transform="translate(-555.697 -652.911)" opacity="0.1"/>
            </g>
            <g id="Group_65" data-name="Group 65" transform="translate(57.772 34.213)">
              <g id="Group_62" data-name="Group 62" transform="translate(0.387)">
                <path id="Path_272" data-name="Path 272" d="M552.56,664.356l-1.087-1.087a.328.328,0,0,0-.544.078l-.544,1.4-.544,1.4a.3.3,0,0,1-.544.078l-1.087-1.087-1.087-1.087a.328.328,0,0,0-.544.078l-.544,1.4-.544,1.4a.3.3,0,0,1-.544.078l-1.087-1.087-1.087-1.087a.375.375,0,0,0-.544.078l-.544,1.4-.544,1.4a.3.3,0,0,1-.544.078l-1.087-1.087-1.087-1.087a.328.328,0,0,0-.544.078l-.544,1.4-.544,1.4a.3.3,0,0,1-.544.078l-1.087-1.087-1.087-1.087a.328.328,0,0,0-.544.078l-.544,1.4-.544,1.4a.3.3,0,0,1-.544.078l-1.087-1.087-1.087-1.087a.375.375,0,0,0-.544.078l-.544,1.4-.544,1.4a.3.3,0,0,1-.544.078l-1.087-1.087-1.087-1.087a.375.375,0,0,0-.544.078l-.544,1.4-.544,1.4a.3.3,0,0,1-.544.078l-1.087-1.087-1.087-1.087a.328.328,0,0,0-.544.078l-.544,1.4-.544,1.4a.3.3,0,0,1-.544.078l-1.087-1.087-1.087-1.087a.328.328,0,0,0-.544.078l-.544,1.4-.7,1.786v.233l.155.932a.3.3,0,0,0,.388.233l38.592-7.61a.3.3,0,0,0,.233-.388l-.155-.932a.271.271,0,0,0-.078-.155Z" transform="translate(-514.899 -663.161)" fill="#7f7f7f"/>
                <path id="Path_273" data-name="Path 273" d="M526.232,735.814l1.165,1.165a.384.384,0,0,0,.621-.155l.621-1.475.621-1.475a.407.407,0,0,1,.621-.155l1.165,1.165,1.165,1.165a.384.384,0,0,0,.621-.155l.621-1.475.621-1.475a.407.407,0,0,1,.621-.155l1.165,1.165,1.165,1.165a.384.384,0,0,0,.621-.155l.621-1.475.621-1.475a.407.407,0,0,1,.621-.155l1.165,1.165,1.165,1.165a.384.384,0,0,0,.621-.155l.621-1.475.621-1.475a.407.407,0,0,1,.621-.155l1.165,1.165,1.165,1.165a.384.384,0,0,0,.621-.155l.621-1.475.621-1.475a.407.407,0,0,1,.621-.155l1.165,1.165,1.165,1.165a.378.378,0,0,0,.621-.155l.621-1.475.621-1.475a.407.407,0,0,1,.621-.155l1.165,1.165,1.165,1.165a.378.378,0,0,0,.621-.155l.621-1.475.621-1.475a.407.407,0,0,1,.621-.155l1.165,1.165,1.165,1.165a.384.384,0,0,0,.621-.155l.621-1.475.621-1.475a.407.407,0,0,1,.621-.155l1.165,1.165,1.165,1.165a.384.384,0,0,0,.621-.155l.621-1.475.776-1.941v-.233l-.233-1.32h0l-42.4,8.386h0l.233,1.32a.271.271,0,0,0,.078.155Z" transform="translate(-517.224 -676.848)" fill="#7f7f7f"/>
                <path id="Path_274" data-name="Path 274" d="M554.812,680.025a43.5,43.5,0,0,0-.621-11.725l-19.645,3.883L514.9,676.065a44.34,44.34,0,0,0,3.96,11.1c3.106,6.445,1.786,25.857,3.184,33.156l21.2-4.193,21.2-4.193C563.043,704.562,554.424,687.169,554.812,680.025Z" transform="translate(-514.899 -664.309)" fill="#656565"/>
                <path id="Path_275" data-name="Path 275" d="M560.019,701.31c-1.941-5.125-3.727-10.327-4.348-14.21l-37.971.155c.466,1.242,1.087,2.64,1.786,4.115a22.63,22.63,0,0,1,1.631,7.3Z" transform="translate(-515.525 -668.511)" fill="#a5a5a5"/>
                <path id="Path_276" data-name="Path 276" d="M528.611,707.2l19.412,1.009-.776,4.038L528.3,710.384Z" transform="translate(-517.894 -673.004)" fill="#e1e1e1"/>
                <path id="Path_277" data-name="Path 277" d="M559.855,694.526c0,2.019-3.184,3.572-7.066,3.494s-6.988-1.708-6.988-3.727,3.184-3.572,7.066-3.494S559.855,692.508,559.855,694.526Z" transform="translate(-521.806 -669.337)" fill="#656565"/>
                <rect id="Rectangle_34" data-name="Rectangle 34" width="1.553" height="10.405" transform="translate(8.78 24.066) rotate(-89.116)" fill="#e1e1e1"/>
                <rect id="Rectangle_35" data-name="Rectangle 35" width="1.553" height="10.405" transform="translate(8.808 26.791) rotate(-89.116)" fill="#e1e1e1"/>
                <rect id="Rectangle_36" data-name="Rectangle 36" width="4.038" height="4.038" transform="translate(40.507 42.704) rotate(-11.192)" fill="#e1e1e1"/>
                <path id="Path_278" data-name="Path 278" d="M564.47,720.647a1.98,1.98,0,1,1-2.33-1.553A2.081,2.081,0,0,1,564.47,720.647Z" transform="translate(-525.101 -675.657)" fill="#e1e1e1"/>
              </g>
              <g id="Group_64" data-name="Group 64" transform="translate(0 0)" opacity="0.2">
                <g id="Group_63" data-name="Group 63">
                  <path id="Path_279" data-name="Path 279" d="M543.588,669.464a.328.328,0,0,0,.544-.078l.544-1.4.388-.932-.388-.388a.328.328,0,0,0-.544.078l-.544,1.4-.388.932Z" transform="translate(-520.837 -663.921)"/>
                  <path id="Path_280" data-name="Path 280" d="M537.988,670.564a.328.328,0,0,0,.544-.078l.544-1.4.388-.932-.388-.388a.328.328,0,0,0-.544.078l-.544,1.4-.388.932Z" transform="translate(-519.586 -664.166)"/>
                  <path id="Path_281" data-name="Path 281" d="M526.688,672.771a.328.328,0,0,0,.544-.078l.544-1.4.388-.932-.388-.388a.375.375,0,0,0-.544.078l-.544,1.4-.388.932Z" transform="translate(-517.06 -664.665)"/>
                  <path id="Path_282" data-name="Path 282" d="M529.309,722.806l-1.475-1.475c-.078-.078-.078-.078-.078-.155l-.233-1.32h0c-1.087-5.435-.621-17.393-1.553-25.857,0-.155-.078-.388-.078-.544v-.078c0-.155-.078-.311-.078-.466v-.078c0-.155-.078-.311-.078-.466v-.078c0-.155-.078-.233-.078-.388v-.155c0-.155-.078-.233-.078-.388V691.2c0-.078-.078-.233-.078-.311v-.155c0-.078-.078-.233-.078-.311v-.155c0-.078-.078-.233-.078-.311V689.8c0-.078-.078-.155-.078-.311,0-.078,0-.078-.078-.155,0-.078-.078-.155-.078-.233s0-.078-.078-.155c0-.078-.078-.155-.078-.233s0-.078-.078-.155c0-.078-.078-.155-.078-.233s0-.078-.078-.155c0-.078-.078-.155-.078-.233s0-.078-.078-.155c0-.078-.078-.155-.078-.233s0-.078-.078-.155c0-.078-.078-.155-.078-.233a.076.076,0,0,0-.078-.078c-.078-.078-.078-.233-.155-.311a1.947,1.947,0,0,0-.311-.544c0-.078-.078-.155-.078-.233-.078-.078-.078-.233-.155-.311s-.078-.155-.155-.233-.078-.155-.155-.311c-.078-.078-.078-.233-.155-.311,0-.078-.078-.155-.078-.233-.078-.078-.078-.233-.155-.311,0-.078-.078-.078-.078-.155-.078-.155-.078-.233-.155-.388,0-.078,0-.078-.078-.155-.078-.155-.078-.233-.155-.388v-.078c-.078-.155-.078-.311-.155-.466h0a45.3,45.3,0,0,1-2.174-6.988l.311-.078c-.155,0-.388-.078-.388-.233l-.155-.932v-.155l.7-1.786.388-.932-.388-.388a.328.328,0,0,0-.544.078l-.544,1.4-.544,1.4a.3.3,0,0,1-.544.078l-1.087-1.087-1.087-1.087a.328.328,0,0,0-.544.078l-.544,1.4-.7,1.786v.233l.155.932a.3.3,0,0,0,.388.233l-.311.078a36.526,36.526,0,0,0,2.174,6.988h0c.078.155.078.311.155.466v.078c.078.155.078.233.155.388,0,.078,0,.078.078.155.078.155.078.233.155.388,0,.078.078.078.078.155.078.078.078.233.155.311,0,.078.078.155.078.233.078.078.078.233.155.311s.078.155.155.311c.078.078.078.155.155.233s.078.233.155.311c0,.078.078.155.078.233a1.945,1.945,0,0,0,.311.544c.078.078.078.233.155.311a.076.076,0,0,0,.078.078c0,.078.078.155.078.233s0,.078.078.155c0,.078.078.155.078.233s0,.078.078.155c0,.078.078.155.078.233s0,.078.078.155c0,.078.078.155.078.233s0,.078.078.155c0,.078.078.155.078.233s0,.078.078.155c0,.078.078.155.078.233s0,.078.078.155c0,.078.078.155.078.311v.155c0,.078.078.233.078.311v.155c0,.078.078.233.078.311v.155c0,.078.078.233.078.311v.155c0,.155.078.233.078.388v.155c0,.155.078.233.078.388v.078c0,.155.078.311.078.466v.078c0,.155.078.311.078.466v.078c0,.155.078.388.078.544.932,8.464.466,20.422,1.553,25.857h0l.233,1.32a.271.271,0,0,0,.078.155l1.475,1.475,1.165,1.165a.384.384,0,0,0,.621-.155l.621-1.475.621-1.475a.407.407,0,0,1,.621-.155l1.165,1.165,1.165,1.165a.384.384,0,0,0,.621-.155l.078-.155Z" transform="translate(-514.4 -664.926)"/>
                  <path id="Path_283" data-name="Path 283" d="M560.488,666.064a.328.328,0,0,0,.544-.078l.544-1.4.388-.932-.388-.388a.328.328,0,0,0-.544.078l-.544,1.4-.388.932Z" transform="translate(-524.614 -663.161)"/>
                  <path id="Path_284" data-name="Path 284" d="M549.188,668.271a.375.375,0,0,0,.544-.078l.544-1.4.388-.932-.388-.388a.375.375,0,0,0-.544.078l-.544,1.4-.388.932Z" transform="translate(-522.089 -663.659)"/>
                  <path id="Path_285" data-name="Path 285" d="M554.788,667.164a.328.328,0,0,0,.544-.078l.544-1.4.388-.932-.388-.388a.328.328,0,0,0-.544.078l-.544,1.4-.388.932Z" transform="translate(-523.341 -663.406)"/>
                  <path id="Path_286" data-name="Path 286" d="M532.311,671.671a.375.375,0,0,0,.544-.078l.544-1.4.388-.932-.388-.388a.375.375,0,0,0-.544.078l-.544,1.4-.311.932Z" transform="translate(-518.334 -664.419)"/>
                  <path id="Path_287" data-name="Path 287" d="M569.364,730.135l-1.165-1.165a.384.384,0,0,0-.621.155l-.078.155,1.009,1.087,1.165,1.165a.384.384,0,0,0,.621-.155l.078-.155Z" transform="translate(-526.268 -677.847)"/>
                  <path id="Path_288" data-name="Path 288" d="M539.064,736.135l-1.165-1.165a.384.384,0,0,0-.621.155l-.078.155,1.009,1.087,1.165,1.165a.384.384,0,0,0,.621-.155l.078-.155Z" transform="translate(-519.496 -679.188)"/>
                  <path id="Path_289" data-name="Path 289" d="M563.364,731.335l-1.165-1.165a.384.384,0,0,0-.621.155l-.078.155,1.009,1.087,1.165,1.165a.378.378,0,0,0,.621-.155l.078-.155Z" transform="translate(-524.927 -678.115)"/>
                  <path id="Path_290" data-name="Path 290" d="M575.464,728.935l-1.165-1.165a.378.378,0,0,0-.621.155l-.078.155,1.009,1.087,1.165,1.165a.384.384,0,0,0,.621-.155l.078-.155Z" transform="translate(-527.632 -677.578)"/>
                  <path id="Path_291" data-name="Path 291" d="M545.164,734.935,544,733.771a.384.384,0,0,0-.621.155l-.078.155,1.009,1.087,1.165,1.165a.384.384,0,0,0,.621-.155l.078-.155Z" transform="translate(-520.86 -678.92)"/>
                  <path id="Path_292" data-name="Path 292" d="M551.264,733.735l-1.165-1.165a.384.384,0,0,0-.621.155l-.078.155,1.009,1.087,1.165,1.165a.384.384,0,0,0,.621-.155l.078-.155Z" transform="translate(-522.223 -678.651)"/>
                  <path id="Path_293" data-name="Path 293" d="M557.264,732.535l-1.165-1.165a.384.384,0,0,0-.621.155l-.078.155,1.009,1.087,1.165,1.165a.378.378,0,0,0,.621-.155l.078-.155Z" transform="translate(-523.564 -678.383)"/>
                </g>
              </g>
            </g>
            <g id="Group_66" data-name="Group 66" transform="translate(15.38 19.173)">
              <path id="Path_294" data-name="Path 294" d="M467.272,655.621l18.481-2.019-.776-7.454a2.533,2.533,0,0,0-2.8-2.252l-13.433,1.475a2.533,2.533,0,0,0-2.252,2.8Z" transform="translate(-461.299 -643.811)" fill="#676767"/>
              <path id="Path_295" data-name="Path 295" d="M463.544,700.45l16-1.708,16-1.708a3.386,3.386,0,0,0,2.718-4.737l-13.9-35.8-9.24,1.009-9.24,1.009-5.9,37.971A3.262,3.262,0,0,0,463.544,700.45Z" transform="translate(-459.823 -646.632)" fill="#676767"/>
              <path id="Path_296" data-name="Path 296" d="M463.529,710.753l16-1.708,16-1.708a3.386,3.386,0,0,0,2.718-4.737l-38.359,4.193A3.344,3.344,0,0,0,463.529,710.753Z" transform="translate(-459.807 -656.935)" fill="#383838"/>
              <path id="Path_297" data-name="Path 297" d="M484.8,645.273h0a1.96,1.96,0,0,0-2.1-1.475l-14.6,1.553a1.86,1.86,0,0,0-1.708,1.864Z" transform="translate(-461.281 -643.792)" fill="#383838"/>
              <rect id="Rectangle_37" data-name="Rectangle 37" width="3.494" height="3.96" transform="translate(12.535 2.708) rotate(-6.24)" fill="#383838"/>
              <path id="Path_298" data-name="Path 298" d="M488.577,669.5l-24.149,2.64L461.4,691.708l34.321-3.727Z" transform="translate(-460.163 -649.538)" fill="#4e4e4e"/>
              <path id="Path_299" data-name="Path 299" d="M486.645,658.108l-.776-1.708-9.24,1.009-9.24,1.01L467,660.283Z" transform="translate(-461.415 -646.61)" fill="#4e4e4e"/>
              <rect id="Rectangle_38" data-name="Rectangle 38" width="14.52" height="2.64" transform="matrix(0.994, -0.108, 0.108, 0.994, 13.797, 32.854)" fill="#6c6c6c"/>
              <rect id="Rectangle_39" data-name="Rectangle 39" width="14.52" height="2.64" transform="matrix(0.994, -0.108, 0.108, 0.994, 13.347, 28.182)" fill="#6c6c6c"/>
              <path id="Path_300" data-name="Path 300" d="M479.033,644.577h.777a.076.076,0,0,1,.078.078h.078l.078.078h0l.078.078h0a1.726,1.726,0,0,1,.621,1.009h0c0,.078.078.155.078.311l.854,8h0l.777,1.708h-.078l13.278,34.088a3.408,3.408,0,0,1-2.718,4.737l6.6-.7a3.386,3.386,0,0,0,2.718-4.737l-13.278-34.088h.078l-.776-1.708h0l-.854-8a.587.587,0,0,0-.078-.311h0a1.726,1.726,0,0,0-.621-1.009h0l-.078-.078h0l-.078-.078h-.078a.076.076,0,0,1-.078-.078h-.078a.076.076,0,0,1-.078-.078H485.4l-6.6.7h0A.6.6,0,0,0,479.033,644.577Z" transform="translate(-464.052 -643.793)" opacity="0.2"/>
            </g>
            <g id="Group_67" data-name="Group 67" transform="translate(106.565 35.671)">
              <path id="Path_301" data-name="Path 301" d="M633.5,719.286l-38.359,12.269a.839.839,0,0,1-1.087-.544l-16.772-52.569a.839.839,0,0,1,.544-1.087l38.359-12.269a.839.839,0,0,1,1.087.544L634.048,718.2A.839.839,0,0,1,633.5,719.286Z" transform="translate(-577.238 -665.038)" fill="#e7e7e7"/>
              <rect id="Rectangle_40" data-name="Rectangle 40" width="41.931" height="1.242" transform="translate(0.941 15.943) rotate(-17.716)" fill="#656565"/>
              <path id="Path_302" data-name="Path 302" d="M583.654,682.239l-1.087-3.339-4.737,1.475a.839.839,0,0,0-.544,1.087l.776,2.485.388,1.165,15.685,49a.839.839,0,0,0,1.087.544l4.737-1.475-15.918-49.7Z" transform="translate(-577.238 -668.136)" opacity="0.1"/>
            </g>
            <g id="Group_76" data-name="Group 76" transform="translate(27.467 25.92)">
              <g id="Group_75" data-name="Group 75">
                <path id="Path_303" data-name="Path 303" d="M516,674.947h0a1.479,1.479,0,0,1-1.242-1.708l.155-1.165-6.6-1.087-6.6-1.087-.155,1.165a1.479,1.479,0,0,1-1.708,1.242l-12.113-2.019A2.008,2.008,0,0,0,485.333,672l-9.939,58.237a2.06,2.06,0,0,0,1.708,2.407l20.111,3.417,20.111,3.417a2.008,2.008,0,0,0,2.407-1.708l7.843-46.2A14.148,14.148,0,0,0,516,674.947Zm5.668,26.168a4.525,4.525,0,0,1-5.28,3.727h0a4.525,4.525,0,0,1-3.727-5.28l3.028-17.782a9.237,9.237,0,0,1,7.532,10.638Z" transform="translate(-475.372 -656.374)" fill="#a6a6a6"/>
                <path id="Path_304" data-name="Path 304" d="M484.076,732.164l15.142,2.562a3.051,3.051,0,0,0,3.494-2.485l5.746-33.7a3.051,3.051,0,0,0-2.485-3.494l-15.142-2.562a3.051,3.051,0,0,0-3.494,2.485l-5.746,33.7A3.026,3.026,0,0,0,484.076,732.164Z" transform="translate(-476.755 -661.411)" fill="#dcdcdc"/>
                <g id="Group_69" data-name="Group 69" transform="translate(8.451 38.862)">
                  <path id="Path_305" data-name="Path 305" d="M503.809,712.135c-.776,4.737-3.882,8.231-6.911,7.687s-4.814-4.814-3.96-9.551c.776-4.737,3.882-8.231,6.911-7.687C502.8,703.05,504.586,707.321,503.809,712.135Z" transform="translate(-487.702 -702.528)" fill="#898989"/>
                  <g id="Group_68" data-name="Group 68" transform="translate(0 20.233)">
                    <path id="Path_306" data-name="Path 306" d="M487.773,730.538l7.144,1.242a1.029,1.029,0,0,0,1.165-.776h0a1.029,1.029,0,0,0-.776-1.165l-7.144-1.242a1.029,1.029,0,0,0-1.165.776h0A.95.95,0,0,0,487.773,730.538Z" transform="translate(-486.419 -728.585)" fill="#898989"/>
                    <path id="Path_307" data-name="Path 307" d="M487.067,734.938l13.511,2.329a1.029,1.029,0,0,0,1.165-.776h0a1.029,1.029,0,0,0-.776-1.165L487.455,733a1.029,1.029,0,0,0-1.165.776h0A.968.968,0,0,0,487.067,734.938Z" transform="translate(-486.256 -729.568)" fill="#898989"/>
                  </g>
                </g>
                <path id="Path_308" data-name="Path 308" d="M523.1,670.533l-15.3-2.64a1.238,1.238,0,0,1-1.009-1.4l.621-3.572a1.134,1.134,0,0,1,1.4-.932l15.3,2.64a1.238,1.238,0,0,1,1.009,1.4L524.5,669.6A1.277,1.277,0,0,1,523.1,670.533Z" transform="translate(-482.394 -654.6)" fill="#898989"/>
                <path id="Path_309" data-name="Path 309" d="M524.544,654.615l-11.8-2.019a.64.64,0,0,0-.776.544L510.8,660.05,524,662.3l1.165-6.911A.922.922,0,0,0,524.544,654.615Z" transform="translate(-483.291 -652.503)" fill="#898989"/>
                <rect id="Rectangle_41" data-name="Rectangle 41" width="0.544" height="13.356" transform="translate(27.456 7.63) rotate(-80.299)" fill="#6b6b6b"/>
                <g id="Group_70" data-name="Group 70" transform="translate(28.131 0.714)">
                  <path id="Path_310" data-name="Path 310" d="M511.988,660.155l-.388-.078,1.087-6.678.466.078Z" transform="translate(-511.6 -653.4)" fill="#6b6b6b"/>
                  <path id="Path_311" data-name="Path 311" d="M513.166,660.278H512.7l1.165-6.678.388.078Z" transform="translate(-511.846 -653.445)" fill="#6b6b6b"/>
                  <path id="Path_312" data-name="Path 312" d="M514.266,660.478l-.466-.078,1.165-6.6.466.078Z" transform="translate(-512.092 -653.489)" fill="#6b6b6b"/>
                  <path id="Path_313" data-name="Path 313" d="M515.388,660.678,515,660.6l1.087-6.6.466.078Z" transform="translate(-512.36 -653.534)" fill="#6b6b6b"/>
                  <path id="Path_314" data-name="Path 314" d="M516.566,660.878l-.466-.078,1.165-6.6.388.078Z" transform="translate(-512.606 -653.579)" fill="#6b6b6b"/>
                  <path id="Path_315" data-name="Path 315" d="M517.688,661.078,517.3,661l1.087-6.6.466.078Z" transform="translate(-512.874 -653.624)" fill="#6b6b6b"/>
                  <path id="Path_316" data-name="Path 316" d="M518.866,661.278l-.466-.078,1.165-6.6.388.078Z" transform="translate(-513.12 -653.668)" fill="#6b6b6b"/>
                  <path id="Path_317" data-name="Path 317" d="M519.988,661.478l-.388-.078,1.087-6.6.466.078Z" transform="translate(-513.388 -653.713)" fill="#6b6b6b"/>
                  <path id="Path_318" data-name="Path 318" d="M521.166,661.678l-.466-.078,1.087-6.6.466.078Z" transform="translate(-513.634 -653.758)" fill="#6b6b6b"/>
                  <path id="Path_319" data-name="Path 319" d="M522.266,661.878l-.466-.078,1.165-6.6.388.078Z" transform="translate(-513.88 -653.802)" fill="#6b6b6b"/>
                  <path id="Path_320" data-name="Path 320" d="M523.388,662.078,523,662l1.087-6.6h.466Z" transform="translate(-514.148 -653.847)" fill="#6b6b6b"/>
                  <path id="Path_321" data-name="Path 321" d="M524.566,662.255l-.466-.078,1.165-6.678.388.078Z" transform="translate(-514.394 -653.869)" fill="#6b6b6b"/>
                  <path id="Path_322" data-name="Path 322" d="M525.688,662.456l-.388-.078,1.087-6.678.466.078Z" transform="translate(-514.662 -653.914)" fill="#6b6b6b"/>
                  <path id="Path_323" data-name="Path 323" d="M526.866,662.656l-.466-.078,1.165-6.678.388.078Z" transform="translate(-514.908 -653.959)" fill="#6b6b6b"/>
                </g>
                <g id="Group_72" data-name="Group 72" transform="translate(34.053 1.413)" opacity="0.3">
                  <g id="Group_71" data-name="Group 71">
                    <path id="Path_324" data-name="Path 324" d="M522.312,684.5l-3.028,17.782a4.582,4.582,0,0,0,3.727,5.28h0a5.878,5.878,0,0,0,1.165.078,4.587,4.587,0,0,1-2.64-4.97l2.951-17.549A17.763,17.763,0,0,0,522.312,684.5Z" transform="translate(-519.227 -661.05)" fill="#fff"/>
                    <path id="Path_325" data-name="Path 325" d="M525.609,671.305h0a1.479,1.479,0,0,1-1.242-1.708l.155-1.165,1.087.155a1.277,1.277,0,0,0,1.4-.932l.621-3.572a1.277,1.277,0,0,0-.932-1.4l-1.087-.155,1.087-6.6a1.172,1.172,0,0,0-.854-1.242l-2.174-.388a1.076,1.076,0,0,1,.854,1.242l-1.087,6.6,1.087.155a1.134,1.134,0,0,1,.932,1.4l-.621,3.572a1.134,1.134,0,0,1-1.4.932l-1.087-.155-.155,1.165a1.407,1.407,0,0,0,1.242,1.708h0a14.331,14.331,0,0,1,11.725,16.539l-7.765,45.5a2.044,2.044,0,0,1-2.407,1.708l2.252.388a2.008,2.008,0,0,0,2.407-1.708l7.765-45.5A14.5,14.5,0,0,0,525.609,671.305Z" transform="translate(-519.883 -654.3)" fill="#fff"/>
                  </g>
                </g>
                <g id="Group_74" data-name="Group 74" transform="translate(0.078)" opacity="0.2">
                  <g id="Group_73" data-name="Group 73">
                    <path id="Path_326" data-name="Path 326" d="M482.094,731.321l9.939-58.237a2.044,2.044,0,0,1,2.407-1.708l-6.6-1.087A2.008,2.008,0,0,0,485.433,672l-9.939,58.237a2.06,2.06,0,0,0,1.708,2.407l6.6,1.087A2.008,2.008,0,0,1,482.094,731.321Z" transform="translate(-475.472 -656.452)"/>
                    <path id="Path_327" data-name="Path 327" d="M507.723,665.774l1.087.155-.155,1.165a1.479,1.479,0,0,1-1.708,1.242l6.6,1.087a1.407,1.407,0,0,0,1.708-1.242l.155-1.165-1.087-.155a1.238,1.238,0,0,1-1.009-1.4l.621-3.572a1.134,1.134,0,0,1,1.4-.932l1.087.155,1.087-6.6a1.076,1.076,0,0,1,1.242-.854l-6.911-1.165a.64.64,0,0,0-.776.544L509.9,659.95l-1.087-.155a1.278,1.278,0,0,0-1.4.932l-.621,3.572A1.175,1.175,0,0,0,507.723,665.774Z" transform="translate(-482.466 -652.481)"/>
                  </g>
                </g>
              </g>
            </g>
            <g id="Group_80" data-name="Group 80" transform="translate(0 22.907)">
              <g id="Group_79" data-name="Group 79" transform="translate(0)">
                <path id="Path_328" data-name="Path 328" d="M445.053,655.911a31.533,31.533,0,0,1-1.553,14.132l.7.466a31.019,31.019,0,0,0,4.5-10.405l4.271-.932-4.737-3.572Z" transform="translate(-440.782 -650.164)" fill="#898989"/>
                <rect id="Rectangle_42" data-name="Rectangle 42" width="7.765" height="3.339" transform="translate(12.349 9.421) rotate(-6.851)" fill="#e1e1e1"/>
                <g id="Group_77" data-name="Group 77" transform="translate(0.311 1.595)">
                  <path id="Path_329" data-name="Path 329" d="M443.584,654.982l-2.8-.078-.388-3.028,2.718-.776Z" transform="translate(-440.4 -650.754)" fill="#898989"/>
                  <rect id="Rectangle_43" data-name="Rectangle 43" width="0.699" height="4.426" transform="translate(2.717 0.081) rotate(-6.69)" fill="#898989"/>
                </g>
                <path id="Path_330" data-name="Path 330" d="M444.9,650.464l15.608-1.864,8,6.057.466,3.727-13.045,1.553-7.843-5.9-2.718.311Z" transform="translate(-441.095 -648.6)" fill="#e1e1e1"/>
                <rect id="Rectangle_44" data-name="Rectangle 44" width="9.473" height="5.668" transform="matrix(0.993, -0.119, 0.119, 0.993, 11.885, 12.785)" fill="#898989"/>
                <path id="Path_331" data-name="Path 331" d="M464.441,670.9l-10.405,1.242a1.529,1.529,0,0,0-1.165,2.174c1.553,3.028,4.115,9.085,2.873,13.666-1.708,6.057-9.551,23.916-.233,44.881a3.6,3.6,0,0,0,3.727,2.1l17.937-2.174a3.542,3.542,0,0,0,3.106-2.873c1.009-5.2,2.1-17.549-4.814-32.613C466.149,677.423,464.984,675.792,464.441,670.9Z" transform="translate(-442.466 -653.584)" fill="#e1e1e1"/>
                <rect id="Rectangle_45" data-name="Rectangle 45" width="1.398" height="45.27" transform="translate(16.893 17.919) rotate(-6.817)" fill="#fff" opacity="0.4"/>
                <path id="Path_332" data-name="Path 332" d="M459.644,740.487a1.464,1.464,0,0,1-1.475-.776,49.324,49.324,0,0,1-4.193-23.14c.7-5.746,17.549-17.005,21.431-7.61.621,1.553,1.165,3.184,1.708,4.737a54.691,54.691,0,0,1,2.252,11.492,44.645,44.645,0,0,1-.544,12.036,1.255,1.255,0,0,1-1.242,1.087Z" transform="translate(-443.104 -661.284)" fill="#898989"/>
                <path id="Path_333" data-name="Path 333" d="M477.04,714.781a45.767,45.767,0,0,0-1.631-4.581L453.9,722.935a40.982,40.982,0,0,0,1.009,7.843l22.829-13.511C477.505,716.412,477.273,715.635,477.04,714.781Z" transform="translate(-443.107 -662.368)" fill="#d3d3d3"/>
                <path id="Path_334" data-name="Path 334" d="M441.165,654.221l-1.087.078-.078-.621,1.087-.078Z" transform="translate(-440 -649.717)" fill="#898989"/>
                <g id="Group_78" data-name="Group 78" transform="translate(12.544 12.24)">
                  <rect id="Rectangle_46" data-name="Rectangle 46" width="0.311" height="4.581" transform="matrix(0.993, -0.118, 0.118, 0.993, 0, 0.995)" fill="#6b6b6b"/>
                  <rect id="Rectangle_47" data-name="Rectangle 47" width="0.311" height="4.581" transform="matrix(0.994, -0.109, 0.109, 0.994, 0.727, 0.895)" fill="#6b6b6b"/>
                  <rect id="Rectangle_48" data-name="Rectangle 48" width="0.311" height="4.581" transform="translate(1.386 0.859) rotate(-6.886)" fill="#6b6b6b"/>
                  <rect id="Rectangle_49" data-name="Rectangle 49" width="0.311" height="4.581" transform="matrix(0.993, -0.118, 0.118, 0.993, 2.177, 0.762)" fill="#6b6b6b"/>
                  <rect id="Rectangle_50" data-name="Rectangle 50" width="0.311" height="4.581" transform="translate(2.866 0.688) rotate(-6.881)" fill="#6b6b6b"/>
                  <rect id="Rectangle_51" data-name="Rectangle 51" width="0.311" height="4.581" transform="matrix(0.993, -0.118, 0.118, 0.993, 3.576, 0.624)" fill="#6b6b6b"/>
                  <rect id="Rectangle_52" data-name="Rectangle 52" width="0.311" height="4.581" transform="translate(4.359 0.441) rotate(-6.886)" fill="#6b6b6b"/>
                  <rect id="Rectangle_53" data-name="Rectangle 53" width="0.311" height="4.581" transform="translate(5.063 0.381) rotate(-6.8)" fill="#6b6b6b"/>
                  <rect id="Rectangle_54" data-name="Rectangle 54" width="0.311" height="4.581" transform="translate(5.766 0.309) rotate(-6.851)" fill="#6b6b6b"/>
                  <rect id="Rectangle_55" data-name="Rectangle 55" width="0.311" height="4.581" transform="matrix(0.993, -0.118, 0.118, 0.993, 6.522, 0.23)" fill="#6b6b6b"/>
                  <rect id="Rectangle_56" data-name="Rectangle 56" width="0.311" height="4.581" transform="translate(7.239 0.12) rotate(-6.881)" fill="#6b6b6b"/>
                  <rect id="Rectangle_57" data-name="Rectangle 57" width="0.311" height="4.581" transform="translate(7.921 0.037) rotate(-6.817)" fill="#6b6b6b"/>
                </g>
                <path id="Path_335" data-name="Path 335" d="M449,655.019l3.494,2.64,16.928-2.019L465.928,653Z" transform="translate(-442.012 -649.583)" fill="#d3d3d3"/>
                <path id="Path_336" data-name="Path 336" d="M459.293,729.85c-9.318-20.965-1.475-38.825.233-44.881,1.242-4.581-1.32-10.638-2.873-13.666a1.529,1.529,0,0,1,1.165-2.174l1.009-.155-.7-5.668.854-.078-.388-3.261-.621-.466-3.417.776.155.155.388,3.261-.854.078.7,5.668-1.009.155a1.529,1.529,0,0,0-1.165,2.174c1.553,3.028,4.115,9.085,2.873,13.666-1.708,6.057-9.551,23.916-.233,44.881a3.6,3.6,0,0,0,3.727,2.1l3.8-.466A3.509,3.509,0,0,1,459.293,729.85Z" transform="translate(-442.444 -651.036)" opacity="0.2"/>
              </g>
              <path id="Path_337" data-name="Path 337" d="M440.7,654.793l2.8.078v.233l.7-.078v-.233a31.533,31.533,0,0,1-1.553,14.132l.155.155c3.417-4.5,4.348-12.735,4.5-14.986l-1.864.233-.155-1.165-.466.078-.078-.621.466-.078-.155-1.165,2.718-.776-4.038.466v-.233l-.7.078v.233l-2.718.776.155,1.165-.466.078.078.621.466-.078Z" transform="translate(-440 -649.047)" opacity="0.2"/>
            </g>
            <g id="Group_88" data-name="Group 88" transform="translate(135.866 8.599)">
              <path id="Path_338" data-name="Path 338" d="M667.027,645.438l-.544-.155.233-.932L653.749,641.4l-.233.932-.544-.155a.64.64,0,0,0-.311,1.242l.544.155-.233,1.087,6.445,1.475,6.445,1.475.233-1.087.544.155a.689.689,0,0,0,.776-.466A.58.58,0,0,0,667.027,645.438Z" transform="translate(-623.289 -632.683)" fill="#cdcdcd"/>
              <path id="Path_339" data-name="Path 339" d="M667.027,645.438l-.544-.155.233-.932L653.749,641.4l-.233.932-.544-.155a.64.64,0,0,0-.311,1.242l.544.155-.233,1.087,6.445,1.475,6.445,1.475.233-1.087.544.155a.689.689,0,0,0,.776-.466A.58.58,0,0,0,667.027,645.438Z" transform="translate(-623.289 -632.683)" fill="#868686" opacity="0.4"/>
              <g id="Group_81" data-name="Group 81" transform="translate(0.078 12.056)">
                <path id="Path_340" data-name="Path 340" d="M666.868,662.783l-6.445-14.132-6.445-1.475-6.445-1.475-11.958,9.939a3.563,3.563,0,0,0-1.32,2.174L627.5,687.087l16.462,3.8,16.462,3.8,6.756-29.274A4.324,4.324,0,0,0,666.868,662.783Z" transform="translate(-617.851 -645.7)" fill="#cdcdcd"/>
                <path id="Path_341" data-name="Path 341" d="M643.742,702.7l-16.462-3.8-.7,2.951a2.407,2.407,0,0,0,1.786,2.873l14.132,3.261,14.132,3.261a2.407,2.407,0,0,0,2.873-1.786l.7-2.951Z" transform="translate(-617.631 -657.59)" fill="#cdcdcd"/>
                <path id="Path_342" data-name="Path 342" d="M642.053,709.643l-14.132-3.261a2.407,2.407,0,0,0-2.873,1.786l-.466,2.1a2.407,2.407,0,0,0,1.786,2.873L640.5,716.4l14.132,3.261a2.407,2.407,0,0,0,2.873-1.786l.466-2.1a2.407,2.407,0,0,0-1.786-2.873Z" transform="translate(-617.184 -659.248)" fill="#cdcdcd"/>
                <path id="Path_343" data-name="Path 343" d="M640.053,718.443l-14.132-3.261a2.407,2.407,0,0,0-2.873,1.786l-.466,2.1a2.407,2.407,0,0,0,1.786,2.873L638.5,725.2l14.132,3.261a2.407,2.407,0,0,0,2.873-1.786l.466-2.1a2.407,2.407,0,0,0-1.786-2.873Z" transform="translate(-616.737 -661.215)" fill="#cdcdcd"/>
                <path id="Path_344" data-name="Path 344" d="M638.053,727.243l-14.132-3.261a2.407,2.407,0,0,0-2.873,1.786l-.466,2.1a2.407,2.407,0,0,0,1.786,2.873L636.5,734l14.132,3.261a2.407,2.407,0,0,0,2.873-1.786l.466-2.1a2.407,2.407,0,0,0-1.786-2.873Z" transform="translate(-616.29 -663.182)" fill="#cdcdcd"/>
                <path id="Path_345" data-name="Path 345" d="M635.283,736.082l-13.589-3.106a2.988,2.988,0,0,0-3.572,2.252l-2.951,12.812a3.565,3.565,0,0,0,2.64,4.271l13.045,2.951,13.045,2.951a3.565,3.565,0,0,0,4.271-2.64l2.951-12.812a2.988,2.988,0,0,0-2.252-3.572Z" transform="translate(-615.073 -665.188)" fill="#cdcdcd"/>
              </g>
              <path id="Path_346" data-name="Path 346" d="M622.759,726.835l2.951-12.812a3.074,3.074,0,0,1,3.572-2.252l-.544-.155a2.384,2.384,0,0,1-1.786-2.873l.466-2.1a2.384,2.384,0,0,1,2.873-1.786,2.349,2.349,0,0,1-1.786-2.873l.466-2.1a2.384,2.384,0,0,1,2.873-1.786,2.349,2.349,0,0,1-1.786-2.873l.466-2.1a2.384,2.384,0,0,1,2.873-1.786h0a2.349,2.349,0,0,1-1.786-2.873l.7-2.951,6.755-29.274a4.465,4.465,0,0,1,1.32-2.174l11.958-9.939.233-1.087-.544-.155a.64.64,0,1,1,.311-1.242l.544.155.233-.932.621-2.64.078-.311.078-.388.932-4.193.233-.932a.426.426,0,0,1,.466-.311l-7.61-1.708c-.233-.078-.388.078-.466.311l-.233.932-.932,4.193-.078.388-.155.078-.621,2.64-.233.932-.544-.155a.64.64,0,1,0-.311,1.242l.544.155-.233,1.087L632.7,652.136a3.563,3.563,0,0,0-1.32,2.174l-6.756,29.274-.7,2.951a2.407,2.407,0,0,0,1.786,2.873h0a2.407,2.407,0,0,0-2.873,1.786l-.466,2.1a2.392,2.392,0,0,1-1.087,4.659l-.466,2.1a2.392,2.392,0,0,1-1.087,4.659l-.466,2.1a2.407,2.407,0,0,0,1.786,2.873l.544.155a2.988,2.988,0,0,0-3.572,2.252l-2.951,12.812a3.565,3.565,0,0,0,2.64,4.271l7.61,1.708A3.232,3.232,0,0,1,622.759,726.835Z" transform="translate(-614.973 -630.219)" fill="#868686" opacity="0.4"/>
              <rect id="Rectangle_58" data-name="Rectangle 58" width="26.168" height="33.855" transform="translate(9.677 53.42) rotate(-77.085)" fill="#898989"/>
              <g id="Group_87" data-name="Group 87" transform="translate(30.453 0.02)">
                <g id="Group_86" data-name="Group 86">
                  <path id="Path_347" data-name="Path 347" d="M667.967,638.974,655,636.024l1.242-5.513a.426.426,0,0,1,.466-.311L668.9,633a.426.426,0,0,1,.311.466Z" transform="translate(-654.373 -630.2)" fill="#eaeaea"/>
                  <rect id="Rectangle_59" data-name="Rectangle 59" width="3.028" height="13.278" transform="translate(0 8.771) rotate(-77.085)" fill="#eaeaea"/>
                  <rect id="Rectangle_60" data-name="Rectangle 60" width="0.311" height="13.278" transform="translate(0.625 6.077) rotate(-77.085)" fill="#c6c6c6"/>
                  <rect id="Rectangle_61" data-name="Rectangle 61" width="4.348" height="13.278" transform="translate(0.742 5.37) rotate(-77.091)" fill="#c6c6c6"/>
                  <g id="Group_83" data-name="Group 83" transform="translate(1.093 1.242)">
                    <g id="Group_82" data-name="Group 82">
                      <path id="Path_348" data-name="Path 348" d="M655.755,636.071l-.155-.078.932-4.193.155.078Z" transform="translate(-655.6 -631.8)" fill="#eaeaea"/>
                      <path id="Path_349" data-name="Path 349" d="M656.233,636.171H656l1.009-4.271.155.078Z" transform="translate(-655.689 -631.822)" fill="#eaeaea"/>
                      <path id="Path_350" data-name="Path 350" d="M656.655,636.271H656.5L657.509,632l.155.078Z" transform="translate(-655.801 -631.845)" fill="#eaeaea"/>
                      <path id="Path_351" data-name="Path 351" d="M657.155,636.393H657l.932-4.193h.233Z" transform="translate(-655.913 -631.889)" fill="#eaeaea"/>
                      <path id="Path_352" data-name="Path 352" d="M657.655,636.493H657.5l.932-4.193h.155Z" transform="translate(-656.025 -631.912)" fill="#eaeaea"/>
                      <path id="Path_353" data-name="Path 353" d="M658.133,636.593H657.9l1.009-4.193h.155Z" transform="translate(-656.114 -631.934)" fill="#eaeaea"/>
                      <path id="Path_354" data-name="Path 354" d="M658.633,636.771l-.233-.078,1.009-4.193h.155Z" transform="translate(-656.226 -631.956)" fill="#eaeaea"/>
                      <path id="Path_355" data-name="Path 355" d="M659.055,636.871l-.155-.078.932-4.193h.233Z" transform="translate(-656.338 -631.979)" fill="#eaeaea"/>
                      <path id="Path_356" data-name="Path 356" d="M659.555,636.971l-.155-.078.932-4.193.155.078Z" transform="translate(-656.449 -632.001)" fill="#eaeaea"/>
                      <path id="Path_357" data-name="Path 357" d="M660.033,637.071l-.233-.078,1.009-4.193.155.078Z" transform="translate(-656.539 -632.023)" fill="#eaeaea"/>
                      <path id="Path_358" data-name="Path 358" d="M660.533,637.171l-.233-.078,1.009-4.193.155.078Z" transform="translate(-656.65 -632.046)" fill="#eaeaea"/>
                      <path id="Path_359" data-name="Path 359" d="M660.955,637.271l-.155-.078.932-4.193.233.078Z" transform="translate(-656.762 -632.068)" fill="#eaeaea"/>
                      <path id="Path_360" data-name="Path 360" d="M661.455,637.371H661.3l.932-4.271.155.078Z" transform="translate(-656.874 -632.091)" fill="#eaeaea"/>
                      <path id="Path_361" data-name="Path 361" d="M661.933,637.493H661.7l1.009-4.193h.155Z" transform="translate(-656.963 -632.135)" fill="#eaeaea"/>
                      <path id="Path_362" data-name="Path 362" d="M662.433,637.593H662.2l1.009-4.193h.155Z" transform="translate(-657.075 -632.158)" fill="#eaeaea"/>
                      <path id="Path_363" data-name="Path 363" d="M662.855,637.693H662.7l.932-4.193h.233Z" transform="translate(-657.187 -632.18)" fill="#eaeaea"/>
                      <path id="Path_364" data-name="Path 364" d="M663.355,637.793H663.2l.932-4.193h.155Z" transform="translate(-657.299 -632.202)" fill="#eaeaea"/>
                      <path id="Path_365" data-name="Path 365" d="M663.855,637.971l-.155-.078.932-4.193h.155Z" transform="translate(-657.41 -632.225)" fill="#eaeaea"/>
                      <path id="Path_366" data-name="Path 366" d="M664.333,638.071l-.233-.078,1.01-4.193h.155Z" transform="translate(-657.5 -632.247)" fill="#eaeaea"/>
                      <path id="Path_367" data-name="Path 367" d="M664.755,638.171l-.155-.078.932-4.193.233.078Z" transform="translate(-657.612 -632.269)" fill="#eaeaea"/>
                      <path id="Path_368" data-name="Path 368" d="M665.255,638.271l-.155-.078.932-4.193.233.078Z" transform="translate(-657.723 -632.292)" fill="#eaeaea"/>
                      <path id="Path_369" data-name="Path 369" d="M665.755,638.371l-.155-.078.932-4.193.155.078Z" transform="translate(-657.835 -632.314)" fill="#eaeaea"/>
                      <path id="Path_370" data-name="Path 370" d="M666.233,638.471l-.233-.078,1.009-4.193.155.078Z" transform="translate(-657.924 -632.336)" fill="#eaeaea"/>
                      <path id="Path_371" data-name="Path 371" d="M666.655,638.571H666.5l.932-4.271.233.078Z" transform="translate(-658.036 -632.359)" fill="#eaeaea"/>
                      <path id="Path_372" data-name="Path 372" d="M667.155,638.693H667l.932-4.193h.233Z" transform="translate(-658.148 -632.403)" fill="#eaeaea"/>
                      <path id="Path_373" data-name="Path 373" d="M667.655,638.793H667.5l.932-4.193h.155Z" transform="translate(-658.26 -632.426)" fill="#eaeaea"/>
                      <path id="Path_374" data-name="Path 374" d="M668.133,638.893H667.9l1.009-4.193h.155Z" transform="translate(-658.349 -632.448)" fill="#eaeaea"/>
                      <path id="Path_375" data-name="Path 375" d="M668.555,638.993H668.4l1.009-4.193h.155Z" transform="translate(-658.461 -632.471)" fill="#eaeaea"/>
                      <path id="Path_376" data-name="Path 376" d="M669.055,639.171l-.155-.078.932-4.193h.233Z" transform="translate(-658.573 -632.493)" fill="#eaeaea"/>
                      <path id="Path_377" data-name="Path 377" d="M669.555,639.271l-.155-.078.932-4.193h.155Z" transform="translate(-658.684 -632.515)" fill="#eaeaea"/>
                      <path id="Path_378" data-name="Path 378" d="M670.033,639.371l-.233-.078,1.009-4.193.155.078Z" transform="translate(-658.774 -632.538)" fill="#eaeaea"/>
                      <path id="Path_379" data-name="Path 379" d="M670.455,639.471l-.155-.078,1.009-4.193.155.078Z" transform="translate(-658.885 -632.56)" fill="#eaeaea"/>
                      <path id="Path_380" data-name="Path 380" d="M670.955,639.571l-.155-.078.932-4.193.233.078Z" transform="translate(-658.997 -632.582)" fill="#eaeaea"/>
                      <path id="Path_381" data-name="Path 381" d="M671.455,639.671l-.155-.078.932-4.193.155.078Z" transform="translate(-659.109 -632.605)" fill="#eaeaea"/>
                    </g>
                  </g>
                  <g id="Group_85" data-name="Group 85" transform="translate(1.451 5.928)">
                    <g id="Group_84" data-name="Group 84">
                      <rect id="Rectangle_62" data-name="Rectangle 62" width="0.311" height="0.388" transform="translate(0 0.303) rotate(-77.009)" fill="#eaeaea"/>
                      <path id="Path_382" data-name="Path 382" d="M659.988,639.088l-.388-.078.078-.311.311.078Z" transform="translate(-656.851 -638.027)" fill="#eaeaea"/>
                      <path id="Path_383" data-name="Path 383" d="M663.488,639.888l-.388-.078.078-.311.388.078Z" transform="translate(-657.634 -638.206)" fill="#eaeaea"/>
                      <path id="Path_384" data-name="Path 384" d="M666.988,640.688l-.388-.078.078-.311.388.078Z" transform="translate(-658.416 -638.385)" fill="#eaeaea"/>
                      <rect id="Rectangle_63" data-name="Rectangle 63" width="0.311" height="0.388" transform="matrix(0.226, -0.974, 0.974, 0.226, 10.907, 2.875)" fill="#eaeaea"/>
                    </g>
                  </g>
                </g>
              </g>
              <path id="Path_385" data-name="Path 385" d="M662.509,637.726l.078-.388.932-4.193.233-.932a.426.426,0,0,1,.466-.311l-7.61-1.708c-.233-.078-.388.078-.466.311l-.233.932-.932,4.193-.078.388-.078.233-.621,2.64,7.61,1.708.621-2.64Z" transform="translate(-623.741 -630.174)" opacity="0.1"/>
            </g>
          </g>
        </g>
      </g>
      <path id="Path_386" data-name="Path 386" d="M544.616,530.061c-29.584-.544-55.286-10.871-76.64-31.6a3.575,3.575,0,0,1-1.4-3.494,3.337,3.337,0,0,1,2.407-2.718c1.475-.466,2.64.233,3.727,1.165,4.5,3.8,8.852,7.92,13.666,11.337a97.421,97.421,0,0,0,48.609,17.782q47.056,3.96,81.3-28.73c1.009-.932,2.019-1.941,3.572-1.708a3.351,3.351,0,0,1,2.8,2.329,3.264,3.264,0,0,1-.932,3.572A101.819,101.819,0,0,1,606.27,510.8a107.434,107.434,0,0,1-55.6,18.869C548.654,529.906,546.635,529.983,544.616,530.061Z" transform="translate(-432.257 -433.62)" fill="#d5e9e5"/>
      <path id="Path_387" data-name="Path 387" d="M545.149,503.2c-19.412-.311-39.524-8.464-56.374-24.693a3.7,3.7,0,0,1-1.32-3.96c.776-2.485,3.727-3.028,5.824-1.165,2.951,2.562,5.746,5.28,8.93,7.61A79.275,79.275,0,0,0,604.4,474a2.06,2.06,0,0,1,.466-.388c1.708-1.631,3.65-1.786,5.125-.388,1.4,1.4,1.32,3.494-.388,5.125a83.133,83.133,0,0,1-21.276,15.375C575.976,500.014,562.931,503.2,545.149,503.2Z" transform="translate(-436.905 -429.198)" fill="#d5e9e5"/>
      <path id="Path_388" data-name="Path 388" d="M551.767,475.613c-14.6-.233-29.274-6.134-41.62-17.937a4.045,4.045,0,0,1-1.553-3.339,3.077,3.077,0,0,1,2.252-2.8,3.422,3.422,0,0,1,3.65.932,54.168,54.168,0,0,0,13.2,9.706,56.35,56.35,0,0,0,64.915-8.541c.466-.388.854-.854,1.32-1.242a3.445,3.445,0,0,1,4.892-.078,3.323,3.323,0,0,1-.233,4.892c-2.64,2.329-5.2,4.737-8,6.755C580.032,471.575,567.142,475.613,551.767,475.613Z" transform="translate(-441.66 -424.519)" fill="#d5e9e5"/>
      <path id="Path_389" data-name="Path 389" d="M528.5,435.257c.078-2.019.776-3.028,2.019-3.65a3.2,3.2,0,0,1,3.65.621,71.558,71.558,0,0,0,6.057,4.814,33.166,33.166,0,0,0,40.611-4.193,5.576,5.576,0,0,1,3.028-1.475,2.906,2.906,0,0,1,2.951,1.941,2.957,2.957,0,0,1-.7,3.65,54.773,54.773,0,0,1-7.532,5.9,39.984,39.984,0,0,1-48.609-5.28A10.31,10.31,0,0,1,528.5,435.257Z" transform="translate(-446.114 -420.037)" fill="#d5e9e5"/>
    </g>
    <g id="object" transform="translate(330.058 246.312)">
      <g id="Group_92" data-name="Group 92">
        <path id="Path_390" data-name="Path 390" d="M422.4,416.8l13.589,259.738a13.1,13.1,0,0,0,13.045,12.657H609.458A13.046,13.046,0,0,0,622.5,676.538L636.091,416.8Z" transform="translate(-411.995 -311.352)" fill="#3b455a" opacity="0.5"/>
        <rect id="Rectangle_64" data-name="Rectangle 64" width="234.579" height="28.808" transform="translate(0 76.718)" fill="#212630"/>
        <path id="Path_391" data-name="Path 391" d="M636.169,357.718H422.4L438.939,281H619.552Z" transform="translate(-411.995 -281)" fill="#3b455a"/>
        <path id="Path_392" data-name="Path 392" d="M598.468,350.46H481.916A10.737,10.737,0,0,1,471.2,339.744V323.516A10.737,10.737,0,0,1,481.916,312.8H598.468a10.737,10.737,0,0,1,10.716,10.716v16.229a10.737,10.737,0,0,1-10.716,10.716" transform="translate(-422.902 -288.107)" fill="#ccd2d9"/>
        <path id="Path_393" data-name="Path 393" d="M487.841,1026.138a3.7,3.7,0,0,0-.388-1.087c-.233-.388-.777-1.475-1.553-2.951Z" transform="translate(-426.188 -446.639)" fill="#fff"/>
      </g>
    </g>
    <g id="Layer_4" transform="translate(371.212 180.31)">
      <path id="Path_394" data-name="Path 394" d="M617.3,231.719H462V196H617.3Z" transform="translate(-462 -196)" fill="#f9eaa5" stroke="#cc9c56" stroke-miterlimit="10" stroke-width="3" fill-rule="evenodd"/>
      <line id="Line_2" data-name="Line 2" y1="29.067" transform="translate(78.426 37.245)" fill="none" stroke="#3b455a" stroke-miterlimit="10" stroke-width="3"/>
      <text id="Plastic_Level:_25_" data-name="Plastic Level: 25%" transform="translate(7.034 23.002)" font-size="16" font-family="Montserrat-Regular, Montserrat"><tspan x="0" y="0">Plastic Level: 25%</tspan></text>
    </g>
  </g>
</svg>
