
<svg xmlns="http://www.w3.org/2000/svg" width="758.508" height="471.6" viewBox="0 0 758.508 471.6">
  <g id="RouteGeneration" transform="translate(-55.8 -48.8)">
    <g id="Layer_3" transform="translate(55.8 48.8)">
      <g id="Group_93" data-name="Group 93">
        <path id="Path_395" data-name="Path 395" d="M167.426,520.4C114.635,520.4,55.8,477.173,55.8,424.382h0c0-52.791,43.227-96.018,96.019-96.018h0a40.751,40.751,0,0,0,40.626-40.626h0a40.751,40.751,0,0,0-40.626-40.626H119.838A42.367,42.367,0,0,1,77.6,204.878h0a42.367,42.367,0,0,1,42.233-42.233h42A16.523,16.523,0,0,0,178.291,146.2h0a16.523,16.523,0,0,0-16.449-16.449H150.977a11.347,11.347,0,0,1-11.323-11.323h0A11.347,11.347,0,0,1,150.977,107.1H224.2a17.894,17.894,0,0,0,17.827-17.827h0A17.894,17.894,0,0,0,224.2,71.447H202.314a11.347,11.347,0,0,1-11.323-11.323h0A11.347,11.347,0,0,1,202.314,48.8h481.7A14.824,14.824,0,0,1,698.78,63.566h0a14.824,14.824,0,0,1-14.766,14.766H661.6a23.347,23.347,0,0,0-23.259,23.259h0A23.347,23.347,0,0,0,661.6,124.85h86.837A14.824,14.824,0,0,1,763.2,139.616h0a14.824,14.824,0,0,1-14.766,14.766H734.2A21.485,21.485,0,0,0,712.781,175.8h0A21.485,21.485,0,0,0,734.2,197.227H753.56a55.248,55.248,0,0,1,55.086,55.086h0A55.248,55.248,0,0,1,753.56,307.4h-6.274a53.11,53.11,0,0,0-52.944,52.944h0a53.11,53.11,0,0,0,52.944,52.944H760.9a53.55,53.55,0,0,1,53.4,53.4h0a53.55,53.55,0,0,1-53.4,53.4c-152.1.306-441.532.306-593.479.306ZM721.809,78.485a14.766,14.766,0,1,0-14.766-14.766,14.775,14.775,0,0,0,14.766,14.766ZM119.149,129.9a11.323,11.323,0,1,0-11.323-11.323A11.3,11.3,0,0,0,119.149,129.9Z" transform="translate(-55.8 -48.8)" fill="#ccfbff" fill-rule="evenodd"/>
      </g>
    </g>
    <g id="Layer_4" transform="translate(91.377 79.633)">
      <g id="Group_115" data-name="Group 115">
        <g id="Group_98" data-name="Group 98">
          <g id="Group_94" data-name="Group 94" transform="translate(243.068 124.174)">
            <path id="Path_396" data-name="Path 396" d="M525.276,282.156a74.431,74.431,0,0,1,58.376,28.308l-12.93,3.825,44.6,42.309,14.307-59.753-14.843,4.438A105.27,105.27,0,0,0,420,356.6h30.833A74.578,74.578,0,0,1,525.276,282.156Z" transform="translate(-420 -251.4)" fill="#30afbf"/>
            <path id="Path_397" data-name="Path 397" d="M600.1,404a74.411,74.411,0,0,1-132.819,46.135l12.93-3.825-44.6-42.233L421.3,463.83l14.843-4.437A105.27,105.27,0,0,0,630.934,404H600.1Z" transform="translate(-420.305 -287.247)" fill="#30afbf"/>
          </g>
          <path id="Path_398" data-name="Path 398" d="M311.767,208.248H307.1V189.58a18.008,18.008,0,0,1,17.98-17.98H623.54v4.667H325a13.322,13.322,0,0,0-13.313,13.313v18.668Z" transform="translate(-150.41 -108.48)" fill="#30afbf"/>
          <path id="Path_399" data-name="Path 399" d="M367.229,603.9H200.287A33.632,33.632,0,0,1,166.7,570.317V512.4h4.667v57.917a28.946,28.946,0,0,0,28.92,28.92H367.306a7.02,7.02,0,0,0,7.039-7.039V573.377a11.755,11.755,0,0,1,11.706-11.706H534.325v4.667H385.974a7.02,7.02,0,0,0-7.039,7.039V592.2A11.609,11.609,0,0,1,367.229,603.9Z" transform="translate(-117.428 -188.538)" fill="#30afbf"/>
          <path id="Path_400" data-name="Path 400" d="M875.117,376.161H870.45V278.995h2.372a92.652,92.652,0,0,0,0-185.3H827.987a28.946,28.946,0,0,0-28.92,28.92v45.064H794.4V122.687A33.632,33.632,0,0,1,827.987,89.1h44.834a97.3,97.3,0,0,1,2.372,194.562v92.5Z" transform="translate(-264.883 -89.1)" fill="#30afbf"/>
          <path id="Path_401" data-name="Path 401" d="M387.9,356.2H270.687c-18.515,0-33.587-12.241-33.587-27.237V304.1h4.667v24.865c0,12.394,12.93,22.57,28.92,22.57H387.822V356.2Z" transform="translate(-133.966 -139.606)" fill="#30afbf"/>
          <g id="Group_95" data-name="Group 95" transform="translate(0 220.804)">
            <path id="Path_402" data-name="Path 402" d="M205.434,429.267A51.567,51.567,0,1,1,153.867,377.7,51.59,51.59,0,0,1,205.434,429.267Z" transform="translate(-102.3 -377.7)" fill="#8be0eb"/>
          </g>
          <g id="Group_96" data-name="Group 96" transform="translate(72.301 78.268)">
            <path id="Path_403" data-name="Path 403" d="M299.934,242.967A51.567,51.567,0,1,1,248.367,191.4,51.59,51.59,0,0,1,299.934,242.967Z" transform="translate(-196.8 -191.4)" fill="#8be0eb"/>
          </g>
          <g id="Group_97" data-name="Group 97" transform="translate(448.188 17.98)">
            <path id="Path_404" data-name="Path 404" d="M791.234,164.167A51.567,51.567,0,1,1,739.667,112.6,51.59,51.59,0,0,1,791.234,164.167Z" transform="translate(-688.1 -112.6)" fill="#8be0eb"/>
          </g>
        </g>
        <g id="Group_114" data-name="Group 114" transform="translate(416.896 286.984)">
          <g id="Group_113" data-name="Group 113" transform="translate(0)">
            <rect id="Rectangle_65" data-name="Rectangle 65" width="187.37" height="15.761" transform="translate(17.061 71.765)" fill="#322d34"/>
            <path id="Path_405" data-name="Path 405" d="M893.313,469.5v75.132H760.8V475.853A11.542,11.542,0,0,1,772.353,464.3H887.8Z" transform="translate(-673.886 -464.223)" fill="#bcbcbc"/>
            <path id="Path_406" data-name="Path 406" d="M890.291,537.328V470H773.768a7.315,7.315,0,0,0-7.268,7.268v60.059Z" transform="translate(-675.225 -465.562)" fill="#dcdcdc"/>
            <path id="Path_407" data-name="Path 407" d="M850.153,578.6v4.514c0,2.525-3.213,4.514-7.268,4.514H649.7V578.6H767.294v4.514h74.9V578.6h7.957Z" transform="translate(-647.787 -491.074)" fill="#322d34"/>
            <path id="Path_408" data-name="Path 408" d="M730.793,490.877v58.988h-5.05a4.6,4.6,0,0,0-2.984,1.071,5.008,5.008,0,0,0-1.454,1.836,5.917,5.917,0,0,0-.612,2.6v5.432H650v-12.7a12.788,12.788,0,0,1,5.2-9.564h0a12.364,12.364,0,0,1,1.377-.765l14.154-6.656a20.117,20.117,0,0,0,6.58-5.356l22.035-29.15a16.217,16.217,0,0,1,11.629-5.815h19.816Z" transform="translate(-647.858 -470.449)" fill="#a9cc52"/>
            <path id="Path_409" data-name="Path 409" d="M657.919,539.423h0a14.272,14.272,0,0,1,1.53-.765l15.914-6.274a23.01,23.01,0,0,0,7.574-5.432s16.985-22.264,22.876-29.456c1.071-1.377,6.121-3.978,7.88-4.9h-1.683a15.962,15.962,0,0,0-11.323,5.662l-21.5,28.461a20.282,20.282,0,0,1-6.427,5.2l-13.772,6.5a7.267,7.267,0,0,0-1.3.765h0a11.717,11.717,0,0,0-3.29,3.672A10.793,10.793,0,0,1,657.919,539.423Z" transform="translate(-648.891 -470.871)" fill="#fff" opacity="0.2"/>
            <path id="Path_410" data-name="Path 410" d="M733.621,507.061v19.2a4.409,4.409,0,0,1-4.361,4.361H701.411a3.875,3.875,0,0,1-.995-.153c-1.607-.383-2.066-1.836-.995-3.519l13.389-20.581a8.97,8.97,0,0,1,6.733-3.672h9.793a4.446,4.446,0,0,1,3.672,1.989A4.748,4.748,0,0,1,733.621,507.061Z" transform="translate(-659.331 -473.244)" fill="#a5dcea"/>
            <path id="Path_411" data-name="Path 411" d="M736.5,527.718v-19.2a4.359,4.359,0,0,0-4.361-4.361H722.35a8.629,8.629,0,0,0-5.05,1.913,9.093,9.093,0,0,1,6.5-3.366H733.6a4.359,4.359,0,0,1,4.361,4.361v19.2a4.275,4.275,0,0,1-2.066,3.672A4.612,4.612,0,0,0,736.5,527.718Z" transform="translate(-663.667 -473.244)" opacity="0.2"/>
            <g id="Group_99" data-name="Group 99" transform="translate(107.495 4.438)">
              <rect id="Rectangle_66" data-name="Rectangle 66" width="2.907" height="67.328" transform="translate(88.444)" fill="#bababa"/>
              <rect id="Rectangle_67" data-name="Rectangle 67" width="2.907" height="67.328" transform="translate(70.771)" fill="#bababa"/>
              <rect id="Rectangle_68" data-name="Rectangle 68" width="2.907" height="67.328" transform="translate(53.097)" fill="#bababa"/>
              <rect id="Rectangle_69" data-name="Rectangle 69" width="2.907" height="67.328" transform="translate(35.424)" fill="#bababa"/>
              <rect id="Rectangle_70" data-name="Rectangle 70" width="2.907" height="67.328" transform="translate(17.75)" fill="#bababa"/>
              <rect id="Rectangle_71" data-name="Rectangle 71" width="2.907" height="67.328" fill="#bababa"/>
            </g>
            <path id="Path_412" data-name="Path 412" d="M649.648,579.011h7.727v-8.569a2.319,2.319,0,0,0-2.448-2.142h-5.279a2.319,2.319,0,0,0-2.448,2.142v6.427A2.319,2.319,0,0,0,649.648,579.011Z" transform="translate(-647.2 -488.654)" fill="#dcdcdc"/>
            <path id="Path_413" data-name="Path 413" d="M703.206,585.8H667.4a19.146,19.146,0,0,1,2.219-6.274,18.1,18.1,0,0,1,29.3-2.831,12.535,12.535,0,0,1,1.989,2.831A17.66,17.66,0,0,1,703.206,585.8Z" transform="translate(-651.945 -489.171)" opacity="0.5"/>
            <g id="Group_103" data-name="Group 103" transform="translate(17.061 83.165)">
              <g id="Group_100" data-name="Group 100">
                <path id="Path_414" data-name="Path 414" d="M669.5,589.2a16.3,16.3,0,1,0,16.3-16.3A16.31,16.31,0,0,0,669.5,589.2Z" transform="translate(-669.5 -572.9)" fill="#322d34"/>
              </g>
              <g id="Group_101" data-name="Group 101" transform="translate(4.361 4.361)">
                <path id="Path_415" data-name="Path 415" d="M675.2,590.535A11.935,11.935,0,1,0,687.135,578.6,11.951,11.951,0,0,0,675.2,590.535Z" transform="translate(-675.2 -578.6)" fill="#dcdcdc"/>
              </g>
              <g id="Group_102" data-name="Group 102" transform="translate(7.345 7.345)">
                <path id="Path_416" data-name="Path 416" d="M679.1,591.452a8.952,8.952,0,1,0,8.952-8.952A9.013,9.013,0,0,0,679.1,591.452Z" transform="translate(-679.1 -582.5)" fill="#bababa"/>
              </g>
            </g>
            <path id="Path_417" data-name="Path 417" d="M871.937,576.7H844.7a17.894,17.894,0,0,1,13.619-6.2A18.156,18.156,0,0,1,871.937,576.7Z" transform="translate(-693.595 -489.171)" opacity="0.5"/>
            <path id="Path_418" data-name="Path 418" d="M874.906,589.091H839.1a15.922,15.922,0,0,1,1.377-4.591h33.052A15.924,15.924,0,0,1,874.906,589.091Z" transform="translate(-692.28 -492.46)" opacity="0.5"/>
            <g id="Group_107" data-name="Group 107" transform="translate(148.504 83.165)">
              <g id="Group_104" data-name="Group 104">
                <path id="Path_419" data-name="Path 419" d="M841.3,589.2a16.3,16.3,0,1,0,16.3-16.3A16.31,16.31,0,0,0,841.3,589.2Z" transform="translate(-841.3 -572.9)" fill="#322d34"/>
              </g>
              <g id="Group_105" data-name="Group 105" transform="translate(4.285 4.361)">
                <path id="Path_420" data-name="Path 420" d="M846.9,590.535A11.935,11.935,0,1,0,858.835,578.6,11.951,11.951,0,0,0,846.9,590.535Z" transform="translate(-846.9 -578.6)" fill="#dcdcdc"/>
              </g>
              <g id="Group_106" data-name="Group 106" transform="translate(7.268 7.345)">
                <path id="Path_421" data-name="Path 421" d="M850.8,591.452a8.952,8.952,0,1,0,8.952-8.952A9.013,9.013,0,0,0,850.8,591.452Z" transform="translate(-850.8 -582.5)" fill="#bababa"/>
              </g>
            </g>
            <circle id="Ellipse_13" data-name="Ellipse 13" cx="5.356" cy="5.356" r="5.356" transform="translate(75.897 81.941)" fill="#f7c45c"/>
            <path id="Path_422" data-name="Path 422" d="M650.1,562.787v1.989h5.2V553.3h0A12.516,12.516,0,0,0,650.1,562.787Z" transform="translate(-647.881 -485.131)" fill="#f7c45c"/>
            <g id="Group_109" data-name="Group 109" transform="translate(91.275 82.017)">
              <path id="Path_423" data-name="Path 423" d="M772.315,589.2h21.729a5.812,5.812,0,0,0,5.815-5.815v-4.667a5.812,5.812,0,0,0-5.815-5.815H772.315a5.812,5.812,0,0,0-5.815,5.815v4.667A5.812,5.812,0,0,0,772.315,589.2Z" transform="translate(-766.5 -571.752)" fill="#dcdcdc"/>
              <path id="Path_424" data-name="Path 424" d="M772.178,578.8h23.335a5.917,5.917,0,0,1,2.6.612v-.842a4.963,4.963,0,0,0-4.973-4.973H774.473a4.963,4.963,0,0,0-4.973,4.973v.842A6.522,6.522,0,0,1,772.178,578.8Z" transform="translate(-767.205 -571.917)" fill="#fff" opacity="0.5"/>
              <g id="Group_108" data-name="Group 108" transform="translate(8.186)">
                <rect id="Rectangle_72" data-name="Rectangle 72" width="2.907" height="18.745" fill="#a0a0a0"/>
                <rect id="Rectangle_73" data-name="Rectangle 73" width="2.907" height="18.745" transform="translate(14.001)" fill="#a0a0a0"/>
              </g>
            </g>
            <rect id="Rectangle_74" data-name="Rectangle 74" width="3.825" height="58.988" transform="translate(79.187 20.428)" opacity="0.2"/>
            <path id="Path_425" data-name="Path 425" d="M744.754,533.5v27.543a5.008,5.008,0,0,0-1.454,1.836v-29.3h1.454Z" transform="translate(-669.775 -480.479)" fill="#5da053"/>
            <path id="Path_426" data-name="Path 426" d="M727.372,502.7l-19.51,27.926h-5.968a3.875,3.875,0,0,1-.995-.153L720.333,502.7Z" transform="translate(-659.815 -473.244)" fill="#fff" opacity="0.2"/>
            <path id="Path_427" data-name="Path 427" d="M736.752,504.76,718.619,530.7H715.1L734.457,503A4.362,4.362,0,0,1,736.752,504.76Z" transform="translate(-663.151 -473.315)" fill="#fff" opacity="0.2"/>
            <path id="Path_428" data-name="Path 428" d="M711.642,571.729h-1.377a9.5,9.5,0,0,0-3.137-6.5,11.782,11.782,0,0,0-8.186-3.6h-.077a.784.784,0,0,1-.765-.765V537.3h1.454v22.876a13.346,13.346,0,0,1,8.569,3.978A11.378,11.378,0,0,1,711.642,571.729Z" transform="translate(-659.157 -481.372)" fill="#5da053"/>
            <rect id="Rectangle_75" data-name="Rectangle 75" width="8.722" height="4.361" transform="translate(62.737 62.049)" fill="#dcdcdc"/>
            <path id="Path_429" data-name="Path 429" d="M729.029,531.1H701.18a5.9,5.9,0,0,1-1.148-.153,2.635,2.635,0,0,1-1.989-1.53,3.3,3.3,0,0,1,.536-3.06l13.389-20.581a9.654,9.654,0,0,1,7.345-3.978h9.793a5.824,5.824,0,0,1,1.607.23,5.127,5.127,0,0,1,2.678,2.066,5.069,5.069,0,0,1,.842,2.754v19.2A5.281,5.281,0,0,1,729.029,531.1Zm-9.793-27.849a8.344,8.344,0,0,0-6.121,3.29l-13.389,20.581a1.813,1.813,0,0,0-.383,1.76,1.348,1.348,0,0,0,.995.689,2.868,2.868,0,0,0,.842.077h27.849a3.592,3.592,0,0,0,3.6-3.6v-19.2a3.792,3.792,0,0,0-.612-1.989,3.6,3.6,0,0,0-1.913-1.454,2.973,2.973,0,0,0-1.148-.153h-9.717Z" transform="translate(-659.1 -473.033)" fill="#322d34"/>
            <rect id="Rectangle_76" data-name="Rectangle 76" width="8.722" height="2.142" transform="translate(62.737 62.049)" fill="#322d34"/>
            <g id="Group_111" data-name="Group 111" transform="translate(66.869 12.165)">
              <g id="Group_110" data-name="Group 110">
                <path id="Path_430" data-name="Path 430" d="M739.284,480.1A4.277,4.277,0,0,0,735,484.385V487.6h8.569v-3.213A4.277,4.277,0,0,0,739.284,480.1Z" transform="translate(-734.694 -480.1)" fill="#fca965"/>
                <path id="Path_431" data-name="Path 431" d="M738.631,481.252c.459-.689.306-.995-.383-.689a4.264,4.264,0,0,0-2.448,3.9v3.213h1.836v-3.137A5.563,5.563,0,0,1,738.631,481.252Z" transform="translate(-734.882 -480.181)" fill="#fff" opacity="0.3"/>
                <rect id="Rectangle_77" data-name="Rectangle 77" width="9.105" height="0.765" transform="translate(0 7.498)" fill="#dcdcdc"/>
                <rect id="Rectangle_78" data-name="Rectangle 78" width="8.569" height="0.153" transform="translate(0.306 7.345)" opacity="0.2"/>
              </g>
            </g>
            <g id="Group_112" data-name="Group 112" transform="translate(190.43)">
              <path id="Path_432" data-name="Path 432" d="M968.118,533.9a127.679,127.679,0,0,1-11.323,10.711h-43.61L896.2,464.2h23.488l40.55,41.238c5.432,4.973,8.952,10.711,10.329,15.914.23.918.383,1.913.536,2.831C971.561,528.085,970.567,531.6,968.118,533.9Z" transform="translate(-896.123 -464.2)" fill="#dcdcdc"/>
              <path id="Path_433" data-name="Path 433" d="M971,524.183c-.153-.918-.306-1.836-.536-2.831-1.377-5.2-4.9-10.941-10.329-15.914L919.588,464.2H896.1l16.985,80.411h43.61A116.538,116.538,0,0,0,968.018,533.9C970.543,531.6,971.538,528.085,971,524.183Zm-5.815,6.733-.23.23a128.026,128.026,0,0,1-9.717,9.334H916.528L901.3,468.484h16.679l39.4,40.091a32.9,32.9,0,0,1,8.8,12.777,12.5,12.5,0,0,1,.612,2.831,14.932,14.932,0,0,1,.153,1.76A6.789,6.789,0,0,1,965.187,530.916Z" transform="translate(-896.1 -464.2)" fill="#bcbcbc"/>
            </g>
            <path id="Path_434" data-name="Path 434" d="M973.938,524.371H944.253l-5.968-9.64-2.6-4.208-5.279-8.569-2.6-4.208L920.918,486.5h0l-3.366-5.432L908.6,466.53l2.372-1.53,10.711,17.444.765,1.3,8.646,14.078,1.3,2.142,6.5,10.635,2.372,3.825,4.438,7.192h27.62A8.931,8.931,0,0,1,973.938,524.371Z" transform="translate(-708.606 -464.388)" fill="#bababa"/>
            <path id="Path_435" data-name="Path 435" d="M936.447,510.019v1.989H925.2V507.8h9.946Z" transform="translate(-712.506 -474.442)" fill="#bababa"/>
            <path id="Path_436" data-name="Path 436" d="M945.833,528.325v.383H927.7V524.5h15.837Z" transform="translate(-713.093 -478.365)" fill="#bababa"/>
            <rect id="Rectangle_79" data-name="Rectangle 79" width="2.831" height="10.482" transform="translate(196.198 32.074) rotate(-63.494)" fill="#bababa"/>
            <path id="Path_437" data-name="Path 437" d="M923.212,488.466l-1.53,2.754h0l-5.662,10.1-4.82-2.754,7.115-12.777.383-.689,3.749,2.066Z" transform="translate(-709.217 -469.11)" fill="#bababa"/>
            <rect id="Rectangle_80" data-name="Rectangle 80" width="7.804" height="2.831" transform="matrix(0.51, -0.86, 0.86, 0.51, 201.674, 32.373)" fill="#bababa"/>
            <path id="Path_438" data-name="Path 438" d="M967.923,549.358h0l-49.272-1.913a.988.988,0,0,1-.918-.689C911,522.121,911,522.121,911,521.891a5.876,5.876,0,0,1,11.323-2.219l7.651,15.531,32.822,6.962a.775.775,0,0,1,.536.306l5.279,5.279a.948.948,0,0,1,.229,1.071A1.062,1.062,0,0,1,967.923,549.358Zm-48.43-3.9,46.058,1.836-3.29-3.29-32.975-7.039a.973.973,0,0,1-.689-.536l-7.88-15.99a3.96,3.96,0,0,0-7.651,1.377C913.142,522.044,917.2,537.04,919.492,545.456Z" transform="translate(-709.17 -476.368)" fill="#bababa"/>
            <path id="Path_439" data-name="Path 439" d="M918.2,526.792a3.6,3.6,0,1,1,3.6-3.6A3.592,3.592,0,0,1,918.2,526.792Zm0-5.815a2.219,2.219,0,1,0,2.219,2.219A2.22,2.22,0,0,0,918.2,520.977Z" transform="translate(-710.016 -477.214)" fill="#bababa"/>
          </g>
        </g>
      </g>
      <path id="Path_440" data-name="Path 440" d="M557.828,360.48l7.421,2.219c2.678.842,6.962,2.066,9.564,2.831l7.421,2.219a4.612,4.612,0,0,0,5.891-3.519l1.683-7.651c.536-2.754,1.607-7.192,2.219-9.946l1.683-7.651c.612-2.754-1.148-3.672-3.825-1.989l-4.667,2.831c-1.683-2.984-3.366-5.891-4.055-7.039-1.53-2.448-4.361-4.361-10.023-4.284-4.208,0-15.378.077-22.341.153l9.334,16.832a2.279,2.279,0,0,1,.536.842c.459.918,2.066,4.131,3.825,7.268l-4.514,2.754c-2.678,1.377-2.754,3.366-.153,4.131" transform="translate(-207.188 -145.337)" fill="#30afbf"/>
      <path id="Path_441" data-name="Path 441" d="M523.98,333.938c-2.448,3.749-8.492,13.619-8.492,13.619a4.649,4.649,0,0,0,1.53,6.427l14.919,8.952a4.727,4.727,0,0,0,6.427-1.683s8.416-14.154,9.181-15.455c.842-1.377,1.76-1.53,2.6-.765L540.659,328.2h-5.432c-3.749.306-8.186.918-11.247,5.738" transform="translate(-199.2 -145.268)" fill="#30afbf"/>
      <path id="Path_442" data-name="Path 442" d="M491.342,406.513c1.683,3.29,6.274,11.935,9.793,18.286l10.558-17.674c1.224-2.219,3.519-6.2,5.509-9.564l5.432,3.06c2.754,1.53,4.438.612,3.825-2.066l-1.836-7.651c-.612-2.754-1.76-7.192-2.448-9.87l-1.836-7.651a4.53,4.53,0,0,0-5.968-3.366l-7.345,2.448c-2.6.918-6.886,2.3-9.564,3.06l-7.345,2.448c-2.6.918-2.525,2.831.229,4.361l3.978,2.3c-1.989,4.055-4.437,8.8-4.973,10.176-1.377,2.219-.612,6.5,1.989,11.706" transform="translate(-192.958 -155.028)" fill="#30afbf"/>
      <path id="Path_443" data-name="Path 443" d="M515.635,418.5,505,436.174c1.913,3.443,3.366,6.274,3.825,7.115,1.148,2.219,2.754,6.35,12.854,6.35,10.1-.077,14.69-.077,14.69-.077a4.637,4.637,0,0,0,4.591-4.744l-.076-17.674a4.654,4.654,0,0,0-4.667-4.744s-17.214.077-20.045.077c-1.76,0-1.989-1.224-1.377-2.372a5.184,5.184,0,0,1,.842-1.607" transform="translate(-196.899 -166.48)" fill="#30afbf"/>
      <path id="Path_444" data-name="Path 444" d="M596.257,410.542l8.722,17.827c3.06-5.738,8.263-15.761,10.405-20.122,2.831-5.815,3.672-10.788,2.372-13.466s-7.727-15.531-7.727-15.531a4.228,4.228,0,0,0-6.121-1.76L588.988,386.9a5.077,5.077,0,0,0-1.683,6.733s4.514,8.339,7.039,12.93a29.877,29.877,0,0,1,1.53,2.907,2.6,2.6,0,0,1,.383,1.071" transform="translate(-216.085 -156.686)" fill="#30afbf"/>
      <path id="Path_445" data-name="Path 445" d="M595.4,440.611c.306-.536,1.148-2.066,2.219-4.055L588.9,418.729c.153,1.071-.306,1.76-1.607,1.76-.918,0-5.126,0-9.028.077l-.077-5.585c0-3.213-1.683-4.284-3.672-2.372l-5.585,5.509c-1.989,1.913-5.279,5.126-7.192,7.039l-5.585,5.509a4.9,4.9,0,0,0,.076,7.039l5.662,5.356c1.989,1.913,5.356,4.973,7.345,6.962l5.662,5.356c1.989,1.913,3.672.842,3.672-2.448l-.076-5.279c2.219,0,4.667,0,6.962-.077,6.121,0,8.569-4.591,9.946-6.962" transform="translate(-208.574 -164.873)" fill="#30afbf"/>
    </g>
    <g id="Layer_5" transform="translate(183.417 154.229)">
      <path id="Path_446" data-name="Path 446" d="M226.3,224.5l3.749,71.536a3.613,3.613,0,0,0,3.6,3.443H277.79a3.613,3.613,0,0,0,3.6-3.443l3.749-71.536Z" transform="translate(-223.469 -195.503)" fill="#3b455a"/>
      <path id="Path_447" data-name="Path 447" d="M229,276.753l1.683,31.522a3.613,3.613,0,0,0,3.6,3.443h44.146a3.613,3.613,0,0,0,3.6-3.443L283.7,276.6Z" transform="translate(-224.103 -207.742)" fill="#a3a6aa"/>
      <g id="object">
        <g id="Group_116" data-name="Group 116">
          <path id="Path_448" data-name="Path 448" d="M226.3,224.5l3.749,71.536a3.613,3.613,0,0,0,3.6,3.443H277.79a3.613,3.613,0,0,0,3.6-3.443l3.749-71.536Z" transform="translate(-223.469 -195.503)" fill="#3b455a" opacity="0.5"/>
          <rect id="Rectangle_81" data-name="Rectangle 81" width="64.573" height="7.957" transform="translate(0 21.116)" fill="#212630"/>
          <path id="Path_449" data-name="Path 449" d="M285.212,207.716H226.3l4.591-21.116h49.731Z" transform="translate(-223.469 -186.6)" fill="#3b455a"/>
          <path id="Path_450" data-name="Path 450" d="M275.018,205.782H242.884A2.988,2.988,0,0,1,239.9,202.8v-4.514a2.988,2.988,0,0,1,2.984-2.984h32.134A2.988,2.988,0,0,1,278,198.284V202.8a3.038,3.038,0,0,1-2.984,2.984" transform="translate(-226.664 -188.644)" fill="#ccd2d9"/>
          <path id="Path_451" data-name="Path 451" d="M244.636,394.748c0-.077-.077-.23-.077-.306a5.64,5.64,0,0,1-.459-.842Z" transform="translate(-227.651 -235.227)" fill="#fff"/>
        </g>
        <path id="Path_452" data-name="Path 452" d="M265.5,254.316l1.989.612c.689.23,1.836.536,2.525.765l1.989.612a1.2,1.2,0,0,0,1.53-.918l.459-2.066c.153-.765.459-1.913.612-2.6l.459-2.066c.153-.765-.306-.995-.995-.536l-1.224.765c-.459-.765-.918-1.53-1.071-1.836a2.872,2.872,0,0,0-2.678-1.148c-1.148,0-4.055,0-5.891.077l2.448,4.438c.077.077.077.153.153.23.153.23.536,1.071.995,1.913l-1.224.765c-.765.23-.765.765-.076.995" transform="translate(-232.137 -200.53)" fill="#fff" opacity="0.51"/>
        <path id="Path_453" data-name="Path 453" d="M256.46,247.23c-.612.995-2.219,3.6-2.219,3.6a1.211,1.211,0,0,0,.383,1.683l3.978,2.372a1.231,1.231,0,0,0,1.683-.459s2.219-3.749,2.448-4.055c.23-.383.459-.383.689-.23L260.9,245.7h-1.454a3.617,3.617,0,0,0-2.984,1.53" transform="translate(-229.988 -200.483)" fill="#fff" opacity="0.51"/>
        <path id="Path_454" data-name="Path 454" d="M247.9,266.5c.459.842,1.683,3.137,2.6,4.82l2.831-4.667c.306-.612.918-1.683,1.454-2.525l1.454.842c.765.383,1.148.153.995-.536l-.459-2.066c-.153-.765-.459-1.913-.612-2.6L255.7,257.7a1.222,1.222,0,0,0-1.607-.918l-1.913.612-2.525.842-1.913.612c-.689.23-.689.765.077,1.148l1.071.612c-.536,1.071-1.148,2.3-1.3,2.678-.612.689-.383,1.836.306,3.213" transform="translate(-228.387 -203.071)" fill="#fff" opacity="0.51"/>
        <path id="Path_455" data-name="Path 455" d="M254.231,269.7l-2.831,4.667a15.893,15.893,0,0,1,.995,1.913c.306.612.765,1.683,3.366,1.683h3.9a1.258,1.258,0,0,0,1.224-1.224v-4.667a1.208,1.208,0,0,0-1.224-1.224h-5.279c-.459,0-.536-.306-.383-.612a1.142,1.142,0,0,1,.23-.536" transform="translate(-229.365 -206.121)" fill="#fff" opacity="0.51"/>
        <path id="Path_456" data-name="Path 456" d="M275.625,267.541l2.3,4.744c.842-1.53,2.219-4.131,2.754-5.356.765-1.53.995-2.831.612-3.6-.306-.689-2.066-4.131-2.066-4.131a1.1,1.1,0,0,0-1.607-.459l-3.9,2.448a1.342,1.342,0,0,0-.459,1.76s1.224,2.219,1.836,3.443a3.192,3.192,0,0,1,.383.765c.077.23.153.306.153.383" transform="translate(-234.463 -203.503)" fill="#fff" opacity="0.51"/>
        <path id="Path_457" data-name="Path 457" d="M275.405,275.54c.077-.153.306-.536.612-1.071l-2.3-4.744q.115.459-.459.459h-2.372V268.73c0-.842-.459-1.148-.995-.612l-1.454,1.454c-.536.536-1.377,1.377-1.913,1.836l-1.454,1.454a1.249,1.249,0,0,0,0,1.836l1.53,1.377c.536.536,1.377,1.3,1.913,1.836l1.53,1.377c.536.536.995.23.995-.612V277.3h1.836a2.776,2.776,0,0,0,2.525-1.76" transform="translate(-232.484 -205.687)" fill="#fff" opacity="0.51"/>
      </g>
    </g>
    <g id="Layer_6" transform="translate(560.528 96.618)">
      <path id="Path_458" data-name="Path 458" d="M719.3,149.3l3.749,71.536a3.613,3.613,0,0,0,3.6,3.443h44.222a3.613,3.613,0,0,0,3.6-3.443l3.749-71.536Z" transform="translate(-716.393 -120.227)" fill="#3b455a"/>
      <path id="Path_459" data-name="Path 459" d="M723.1,226.6l.765,12.394a3.613,3.613,0,0,0,3.6,3.443h44.222a3.613,3.613,0,0,0,3.6-3.443l.612-12.394Z" transform="translate(-717.285 -138.385)" fill="#a3a6aa"/>
      <g id="Group_117" data-name="Group 117" transform="translate(0)">
        <path id="Path_460" data-name="Path 460" d="M719.3,149.3l3.749,71.536a3.613,3.613,0,0,0,3.6,3.443h44.222a3.613,3.613,0,0,0,3.6-3.443l3.749-71.536Z" transform="translate(-716.393 -120.227)" fill="#3b455a" opacity="0.5"/>
        <rect id="Rectangle_82" data-name="Rectangle 82" width="64.65" height="7.957" transform="translate(0 21.116)" fill="#212630"/>
        <path id="Path_461" data-name="Path 461" d="M778.135,132.416H719.3l4.514-21.116h49.807Z" transform="translate(-716.393 -111.3)" fill="#3b455a"/>
        <path id="Path_462" data-name="Path 462" d="M767.918,130.582H735.784A2.988,2.988,0,0,1,732.8,127.6v-4.514a2.988,2.988,0,0,1,2.984-2.984h32.134a2.988,2.988,0,0,1,2.984,2.984V127.6a2.988,2.988,0,0,1-2.984,2.984" transform="translate(-719.564 -113.367)" fill="#ccd2d9"/>
        <path id="Path_463" data-name="Path 463" d="M737.536,319.648c0-.077-.076-.23-.076-.306A5.649,5.649,0,0,1,737,318.5Z" transform="translate(-720.551 -159.974)" fill="#fff"/>
      </g>
      <path id="Path_464" data-name="Path 464" d="M758.4,179.116l1.989.612c.689.23,1.836.536,2.525.765l1.989.612a1.2,1.2,0,0,0,1.53-.918l.459-2.066c.153-.765.459-1.913.612-2.6l.459-2.066c.153-.765-.306-.995-.995-.536l-1.224.765c-.459-.765-.918-1.53-1.071-1.836a2.872,2.872,0,0,0-2.678-1.148c-1.148,0-4.055,0-5.891.077l2.448,4.438c.076.077.076.153.153.23.153.23.536,1.071.995,1.913l-1.224.765c-.688.229-.765.765-.076.995" transform="translate(-725.037 -125.254)" fill="#fff" opacity="0.51"/>
      <path id="Path_465" data-name="Path 465" d="M749.46,172.03c-.612.995-2.219,3.6-2.219,3.6a1.211,1.211,0,0,0,.383,1.683l3.979,2.372a1.231,1.231,0,0,0,1.683-.459s2.219-3.749,2.448-4.055c.229-.383.459-.383.689-.23L753.9,170.5h-1.454a3.426,3.426,0,0,0-2.984,1.53" transform="translate(-722.912 -125.207)" fill="#fff" opacity="0.51"/>
      <path id="Path_466" data-name="Path 466" d="M740.9,191.3c.459.842,1.683,3.137,2.6,4.82l2.831-4.667c.306-.612.918-1.683,1.454-2.525l1.454.842c.765.383,1.148.153.995-.536l-.459-2.066c-.153-.765-.459-1.913-.612-2.6L748.7,182.5a1.222,1.222,0,0,0-1.607-.918l-1.913.612-2.525.842-1.913.612c-.689.23-.689.765.077,1.148l1.071.612c-.536,1.071-1.148,2.3-1.3,2.678-.612.689-.383,1.836.306,3.213" transform="translate(-721.311 -127.794)" fill="#fff" opacity="0.51"/>
      <path id="Path_467" data-name="Path 467" d="M747.231,194.4l-2.831,4.667a15.887,15.887,0,0,1,.995,1.913c.306.612.765,1.683,3.366,1.683h3.9a1.258,1.258,0,0,0,1.224-1.224v-4.667a1.208,1.208,0,0,0-1.224-1.224h-5.279c-.459,0-.536-.306-.383-.612a1.017,1.017,0,0,1,.23-.536" transform="translate(-722.289 -130.821)" fill="#fff" opacity="0.51"/>
      <path id="Path_468" data-name="Path 468" d="M768.625,192.341l2.3,4.744c.842-1.53,2.219-4.208,2.754-5.356.765-1.53.995-2.831.612-3.6-.306-.689-2.066-4.131-2.066-4.131a1.1,1.1,0,0,0-1.607-.459l-3.9,2.448a1.342,1.342,0,0,0-.459,1.76s1.224,2.219,1.836,3.443a3.194,3.194,0,0,1,.383.765c.076.23.153.306.153.383" transform="translate(-727.387 -128.227)" fill="#fff" opacity="0.51"/>
      <path id="Path_469" data-name="Path 469" d="M768.405,200.34c.076-.153.306-.536.612-1.071l-2.3-4.744q.115.459-.459.459h-2.372V193.53c0-.842-.459-1.148-.995-.612l-1.454,1.454c-.536.536-1.377,1.377-1.913,1.836l-1.454,1.454a1.249,1.249,0,0,0,0,1.836l1.53,1.377c.536.536,1.377,1.3,1.913,1.836l1.53,1.377c.536.536.995.23.995-.612V202.1h1.836a2.776,2.776,0,0,0,2.525-1.76" transform="translate(-725.407 -130.411)" fill="#fff" opacity="0.51"/>
    </g>
    <g id="Layer_7" transform="translate(110.045 298.678)">
      <path id="Path_470" data-name="Path 470" d="M130.5,413.7l3.749,72.224a3.643,3.643,0,0,0,3.672,3.519h44.6a3.643,3.643,0,0,0,3.672-3.519l3.749-72.224Z" transform="translate(-127.593 -384.397)" fill="#3b455a"/>
      <path id="Path_471" data-name="Path 471" d="M131.3,427.9l3.213,61.36a3.643,3.643,0,0,0,3.672,3.519h44.6a3.643,3.643,0,0,0,3.672-3.519l2.984-61.36H131.3Z" transform="translate(-127.781 -387.733)" fill="#a3a6aa"/>
      <g id="Group_118" data-name="Group 118">
        <path id="Path_472" data-name="Path 472" d="M130.5,413.7l3.749,72.224a3.643,3.643,0,0,0,3.672,3.519h44.6a3.643,3.643,0,0,0,3.672-3.519l3.749-72.224Z" transform="translate(-127.593 -384.397)" fill="#3b455a" opacity="0.5"/>
        <rect id="Rectangle_83" data-name="Rectangle 83" width="65.262" height="8.033" transform="translate(0 21.346)" fill="#212630"/>
        <path id="Path_473" data-name="Path 473" d="M189.947,396.746H130.5l4.591-21.346h50.266Z" transform="translate(-127.593 -375.4)" fill="#3b455a"/>
        <path id="Path_474" data-name="Path 474" d="M179.624,394.882h-32.44A2.94,2.94,0,0,1,144.2,391.9v-4.514a2.94,2.94,0,0,1,2.984-2.984h32.44a2.94,2.94,0,0,1,2.984,2.984V391.9a2.988,2.988,0,0,1-2.984,2.984" transform="translate(-130.811 -377.514)" fill="#ccd2d9"/>
        <path id="Path_475" data-name="Path 475" d="M148.936,585.748c0-.076-.077-.229-.077-.306a5.641,5.641,0,0,1-.459-.842Z" transform="translate(-131.798 -424.544)" fill="#fff"/>
      </g>
      <path id="Path_476" data-name="Path 476" d="M170.1,443.769l1.989.612c.689.229,1.836.536,2.525.765l1.989.612a1.305,1.305,0,0,0,1.607-.918l.459-2.066c.153-.765.459-1.913.612-2.678l.459-2.066c.153-.765-.306-.995-.995-.536l-1.224.765c-.459-.765-.918-1.607-1.071-1.913a2.873,2.873,0,0,0-2.678-1.148c-1.148,0-4.131,0-5.968.076l2.525,4.514c.077.076.077.153.153.229.153.23.536,1.071.995,1.913l-1.224.765c-.842.306-.918.918-.153,1.071" transform="translate(-136.355 -389.448)" fill="#fff" opacity="0.51"/>
      <path id="Path_477" data-name="Path 477" d="M160.937,436.73c-.612.995-2.3,3.672-2.3,3.672a1.32,1.32,0,0,0,.383,1.76L163,444.534a1.272,1.272,0,0,0,1.76-.459s2.219-3.749,2.448-4.131.459-.383.689-.23l-2.525-4.514h-1.454a3.426,3.426,0,0,0-2.984,1.53" transform="translate(-134.159 -389.448)" fill="#fff" opacity="0.51"/>
      <path id="Path_478" data-name="Path 478" d="M152.25,456.1c.459.918,1.683,3.213,2.6,4.9l2.831-4.744c.306-.612.918-1.683,1.454-2.525l1.454.842c.765.383,1.224.153.995-.536l-.459-2.066c-.153-.765-.459-1.913-.612-2.6l-.459-2.066a1.222,1.222,0,0,0-1.607-.918l-1.989.612-2.525.842-1.989.612c-.689.23-.689.765.077,1.148l1.071.612c-.536,1.071-1.224,2.372-1.377,2.754-.382.612-.153,1.76.536,3.137" transform="translate(-132.511 -392.058)" fill="#fff" opacity="0.51"/>
      <path id="Path_479" data-name="Path 479" d="M158.731,459.3l-2.831,4.744a15.892,15.892,0,0,1,.995,1.913c.306.612.765,1.683,3.443,1.683h3.9a1.275,1.275,0,0,0,1.224-1.3V461.6a1.275,1.275,0,0,0-1.224-1.3h-5.356c-.459,0-.536-.306-.383-.612a3.971,3.971,0,0,1,.23-.383" transform="translate(-133.559 -395.109)" fill="#fff" opacity="0.51"/>
      <path id="Path_480" data-name="Path 480" d="M180.3,457.241l2.3,4.744c.842-1.53,2.219-4.208,2.754-5.356.765-1.53.995-2.907.612-3.6S183.9,448.9,183.9,448.9a1.1,1.1,0,0,0-1.607-.459l-3.978,2.525a1.342,1.342,0,0,0-.459,1.76s1.224,2.219,1.913,3.443a3.192,3.192,0,0,1,.383.765.4.4,0,0,1,.153.306" transform="translate(-138.681 -392.515)" fill="#fff" opacity="0.51"/>
      <path id="Path_481" data-name="Path 481" d="M180.082,465.24c.077-.153.306-.536.612-1.071l-2.3-4.744q.115.459-.459.459h-2.448V458.43c0-.842-.459-1.148-.995-.612l-1.454,1.454-1.913,1.913-1.454,1.454a1.339,1.339,0,0,0,0,1.913l1.53,1.454c.536.536,1.454,1.377,1.989,1.836l1.53,1.454c.536.536.995.23.995-.612v-1.377h1.836a3.592,3.592,0,0,0,2.525-2.066" transform="translate(-136.701 -394.698)" fill="#fff" opacity="0.51"/>
    </g>
  </g>
</svg>
