<svg xmlns="http://www.w3.org/2000/svg" width="753.168" height="644.295" viewBox="0 0 753.168 644.295">
  <g id="VisualRecognition" transform="translate(34.6 -80.5)">
    <g id="Layer_3" transform="translate(-34.6 80.5)">
      <g id="Group_22" data-name="Group 22">
        <path id="Path_89" data-name="Path 89" d="M132.589,493.427c-46.209,0-97.689-37.854-97.689-84.064h0c0-46.209,37.854-84.064,84.064-84.064h0A35.658,35.658,0,0,0,154.5,289.759h0a35.658,35.658,0,0,0-35.541-35.541H90.878a37.084,37.084,0,0,1-36.955-36.955h0A37.084,37.084,0,0,1,90.878,180.31H127.64a14.455,14.455,0,0,0,14.4-14.4h0a14.455,14.455,0,0,0-14.4-14.4h-9.512a10.012,10.012,0,0,1-9.962-9.962h0a10.012,10.012,0,0,1,9.962-9.962H182.2a15.634,15.634,0,0,0,15.617-15.617h0A15.634,15.634,0,0,0,182.2,100.359H163.052a9.957,9.957,0,0,1-9.9-9.962h0a9.943,9.943,0,0,1,9.9-9.9h421.8a13.029,13.029,0,0,1,12.982,12.982h0a13.029,13.029,0,0,1-12.982,12.982H565.182a20.462,20.462,0,0,0-20.373,20.373h0a20.462,20.462,0,0,0,20.373,20.373h76.03a13.029,13.029,0,0,1,12.982,12.982h0a13.029,13.029,0,0,1-12.982,12.982h-12.4a18.789,18.789,0,0,0-18.766,18.766h0a18.789,18.789,0,0,0,18.766,18.767h16.9a48.343,48.343,0,0,1,48.2,48.2h0a48.343,48.343,0,0,1-48.2,48.2h-5.527a46.547,46.547,0,0,0-46.4,46.4h0a46.547,46.547,0,0,0,46.4,46.4h11.954A46.917,46.917,0,0,1,698.926,446.7h0a46.917,46.917,0,0,1-46.788,46.788c-133.037-.064-386.513-.064-519.55-.064Zm485.423-386.9a12.982,12.982,0,1,0-12.982-12.982,12.987,12.987,0,0,0,12.982,12.982ZM90.235,151.517a9.962,9.962,0,1,0-9.9-9.962A9.97,9.97,0,0,0,90.235,151.517Z" transform="translate(9.767 -80.5)" fill="#d5e9e5" fill-rule="evenodd"/>
        <g id="Group_15" data-name="Group 15" transform="translate(6.941 341.332)">
          <path id="Path_90" data-name="Path 90" d="M95.483,611.6a48.8,48.8,0,0,1,48.78,48.78c0,1.157-.064,2.249-.129,3.342a43.289,43.289,0,0,1,35.219,31.556,24.436,24.436,0,0,1,12.532,4.884,30.515,30.515,0,0,1,52.893,20.759,29.888,29.888,0,0,1-2.764,12.661H-21.936a42.979,42.979,0,0,1-1.864-12.6,43.337,43.337,0,0,1,43.317-43.317,48.522,48.522,0,0,1,5.334.321A27.282,27.282,0,0,1,46.7,661.408v-.964A48.727,48.727,0,0,1,95.483,611.6Z" transform="translate(23.8 -611.6)" fill="#96c9b3" fill-rule="evenodd"/>
          <g id="Group_14" data-name="Group 14" transform="translate(12.468 9.255)">
            <path id="Path_91" data-name="Path 91" d="M18.544,732a22.409,22.409,0,0,1,9.062,1.864A15.93,15.93,0,0,1,42,724.74a13,13,0,0,1,2.764.257,25.493,25.493,0,0,1,25.129-21.273,26.391,26.391,0,0,1,8.483,1.414,36.815,36.815,0,0,1,67.739,19.988,38.411,38.411,0,0,1-.9,8.226,15.636,15.636,0,0,1,2.442-.193,15.873,15.873,0,0,1,12.083,5.591,20.52,20.52,0,0,1,29.756,7.841,10.719,10.719,0,0,1,2.057-.129,13.906,13.906,0,0,1,13.882,13.882v.707h-209a23.732,23.732,0,0,1-.835-6.106A22.958,22.958,0,0,1,18.544,732Z" transform="translate(4.4 -648.26)" fill="#88c2a9" fill-rule="evenodd"/>
            <g id="Group_13" data-name="Group 13" transform="translate(1.478)">
              <path id="Path_92" data-name="Path 92" d="M353.305,770.311a7.005,7.005,0,1,0-7.005-7.005A7.022,7.022,0,0,0,353.305,770.311Z" transform="translate(-122.387 -672.558)" fill="#88c2a9" fill-rule="evenodd"/>
              <path id="Path_93" data-name="Path 93" d="M264.784,747.369a4.884,4.884,0,1,0-4.884-4.884A4.882,4.882,0,0,0,264.784,747.369Z" transform="translate(-91.516 -665.876)" fill="#88c2a9" fill-rule="evenodd"/>
              <path id="Path_94" data-name="Path 94" d="M161.305,640.011a7.005,7.005,0,1,0-7.005-7.005A7.022,7.022,0,0,0,161.305,640.011Z" transform="translate(-53.784 -626)" fill="#88c2a9" fill-rule="evenodd"/>
              <path id="Path_95" data-name="Path 95" d="M117.705,663.911a7.005,7.005,0,1,0-7.005-7.005A7.022,7.022,0,0,0,117.705,663.911Z" transform="translate(-38.205 -634.54)" fill="#88c2a9" fill-rule="evenodd"/>
              <path id="Path_96" data-name="Path 96" d="M3.684,748.068a5.784,5.784,0,1,0,0-11.568A5.76,5.76,0,0,0-2.1,742.284,5.843,5.843,0,0,0,3.684,748.068Z" transform="translate(2.1 -665.483)" fill="#88c2a9" fill-rule="evenodd"/>
              <path id="Path_97" data-name="Path 97" d="M174.87,670.741a4.37,4.37,0,1,0-4.37-4.37A4.375,4.375,0,0,0,174.87,670.741Z" transform="translate(-59.572 -638.863)" fill="#88c2a9" fill-rule="evenodd"/>
              <path id="Path_98" data-name="Path 98" d="M152.485,665.77a2.185,2.185,0,1,0-2.185-2.185A2.208,2.208,0,0,0,152.485,665.77Z" transform="translate(-52.354 -638.649)" fill="#88c2a9" fill-rule="evenodd"/>
              <path id="Path_99" data-name="Path 99" d="M108.385,682.47a2.185,2.185,0,1,0-2.185-2.185A2.167,2.167,0,0,0,108.385,682.47Z" transform="translate(-36.597 -644.616)" fill="#88c2a9" fill-rule="evenodd"/>
              <path id="Path_100" data-name="Path 100" d="M31.985,739.17a2.185,2.185,0,1,0-2.185-2.185A2.167,2.167,0,0,0,31.985,739.17Z" transform="translate(-9.298 -664.875)" fill="#88c2a9" fill-rule="evenodd"/>
              <path id="Path_101" data-name="Path 101" d="M210.785,669.97a2.185,2.185,0,1,0-2.185-2.185A2.252,2.252,0,0,0,210.785,669.97Z" transform="translate(-73.186 -640.149)" fill="#88c2a9" fill-rule="evenodd"/>
              <path id="Path_102" data-name="Path 102" d="M242.685,723.67a2.185,2.185,0,1,0-2.185-2.185A2.208,2.208,0,0,0,242.685,723.67Z" transform="translate(-84.584 -659.337)" fill="#88c2a9" fill-rule="evenodd"/>
              <path id="Path_103" data-name="Path 103" d="M229.706,705.713a3.406,3.406,0,1,0-3.406-3.406A3.388,3.388,0,0,0,229.706,705.713Z" transform="translate(-79.51 -652.048)" fill="#88c2a9" fill-rule="evenodd"/>
              <path id="Path_104" data-name="Path 104" d="M97.206,701.313a3.406,3.406,0,1,0-3.406-3.406A3.472,3.472,0,0,0,97.206,701.313Z" transform="translate(-32.166 -650.476)" fill="#88c2a9" fill-rule="evenodd"/>
              <path id="Path_105" data-name="Path 105" d="M59.806,730.912a3.406,3.406,0,1,0-3.406-3.406A3.387,3.387,0,0,0,59.806,730.912Z" transform="translate(-18.803 -661.052)" fill="#88c2a9" fill-rule="evenodd"/>
            </g>
          </g>
        </g>
        <g id="Group_18" data-name="Group 18" transform="translate(155.659 341.332)">
          <path id="Path_106" data-name="Path 106" d="M326.819,611.6a48.8,48.8,0,0,1,48.78,48.78c0,1.157-.064,2.249-.129,3.342a43.289,43.289,0,0,1,35.219,31.556,24.436,24.436,0,0,1,12.532,4.884,30.515,30.515,0,0,1,52.893,20.759,29.887,29.887,0,0,1-2.764,12.661H209.464a43.341,43.341,0,0,1,41.453-55.914,48.522,48.522,0,0,1,5.334.321A27.282,27.282,0,0,1,278.1,661.408v-.964A48.713,48.713,0,0,1,326.819,611.6Z" transform="translate(-207.6 -611.6)" fill="#96c9b3" fill-rule="evenodd"/>
          <g id="Group_17" data-name="Group 17" transform="translate(12.404 9.255)">
            <path id="Path_107" data-name="Path 107" d="M249.908,732a22.409,22.409,0,0,1,9.062,1.864,15.93,15.93,0,0,1,14.4-9.126,13,13,0,0,1,2.764.257,25.443,25.443,0,0,1,25.129-21.273,26.391,26.391,0,0,1,8.483,1.414,36.815,36.815,0,0,1,67.739,19.988,38.41,38.41,0,0,1-.9,8.226,15.636,15.636,0,0,1,2.442-.193,15.873,15.873,0,0,1,12.083,5.591,20.52,20.52,0,0,1,29.756,7.841,10.718,10.718,0,0,1,2.057-.129A13.906,13.906,0,0,1,436.8,760.345v.707H227.735a23.733,23.733,0,0,1-.835-6.106A23.054,23.054,0,0,1,249.908,732Z" transform="translate(-226.9 -648.26)" fill="#88c2a9" fill-rule="evenodd"/>
            <g id="Group_16" data-name="Group 16" transform="translate(1.542)">
              <path id="Path_108" data-name="Path 108" d="M584.605,770.311a7.005,7.005,0,1,0-7.005-7.005A7.022,7.022,0,0,0,584.605,770.311Z" transform="translate(-353.752 -672.558)" fill="#88c2a9" fill-rule="evenodd"/>
              <path id="Path_109" data-name="Path 109" d="M496.084,747.369a4.884,4.884,0,1,0-4.884-4.884A4.882,4.882,0,0,0,496.084,747.369Z" transform="translate(-322.88 -665.876)" fill="#88c2a9" fill-rule="evenodd"/>
              <path id="Path_110" data-name="Path 110" d="M392.605,640.011a7.005,7.005,0,1,0-7.005-7.005A7.022,7.022,0,0,0,392.605,640.011Z" transform="translate(-285.148 -626)" fill="#88c2a9" fill-rule="evenodd"/>
              <path id="Path_111" data-name="Path 111" d="M349.005,663.911A7.005,7.005,0,1,0,342,656.905,7.106,7.106,0,0,0,349.005,663.911Z" transform="translate(-269.569 -634.54)" fill="#88c2a9" fill-rule="evenodd"/>
              <path id="Path_112" data-name="Path 112" d="M235.084,748.068a5.784,5.784,0,1,0-5.784-5.784A5.76,5.76,0,0,0,235.084,748.068Z" transform="translate(-229.3 -665.483)" fill="#88c2a9" fill-rule="evenodd"/>
              <circle id="Ellipse_5" data-name="Ellipse 5" cx="4.37" cy="4.37" r="4.37" transform="translate(110.864 23.201)" fill="#88c2a9"/>
              <path id="Path_113" data-name="Path 113" d="M383.785,665.77a2.185,2.185,0,1,0-2.185-2.185A2.252,2.252,0,0,0,383.785,665.77Z" transform="translate(-283.719 -638.649)" fill="#88c2a9" fill-rule="evenodd"/>
              <path id="Path_114" data-name="Path 114" d="M339.685,682.47a2.185,2.185,0,1,0-2.185-2.185A2.252,2.252,0,0,0,339.685,682.47Z" transform="translate(-267.961 -644.616)" fill="#88c2a9" fill-rule="evenodd"/>
              <path id="Path_115" data-name="Path 115" d="M263.285,739.17a2.185,2.185,0,1,0-2.185-2.185A2.252,2.252,0,0,0,263.285,739.17Z" transform="translate(-240.662 -664.875)" fill="#88c2a9" fill-rule="evenodd"/>
              <path id="Path_116" data-name="Path 116" d="M442.185,669.97A2.185,2.185,0,1,0,440,667.785,2.208,2.208,0,0,0,442.185,669.97Z" transform="translate(-304.585 -640.149)" fill="#88c2a9" fill-rule="evenodd"/>
              <path id="Path_117" data-name="Path 117" d="M474.085,723.67a2.185,2.185,0,1,0-2.185-2.185A2.167,2.167,0,0,0,474.085,723.67Z" transform="translate(-315.984 -659.337)" fill="#88c2a9" fill-rule="evenodd"/>
              <path id="Path_118" data-name="Path 118" d="M461.006,705.713a3.406,3.406,0,1,0-3.406-3.406A3.471,3.471,0,0,0,461.006,705.713Z" transform="translate(-310.874 -652.048)" fill="#88c2a9" fill-rule="evenodd"/>
              <path id="Path_119" data-name="Path 119" d="M328.606,701.313a3.406,3.406,0,1,0-3.406-3.406A3.429,3.429,0,0,0,328.606,701.313Z" transform="translate(-263.566 -650.476)" fill="#88c2a9" fill-rule="evenodd"/>
              <path id="Path_120" data-name="Path 120" d="M291.106,730.912a3.406,3.406,0,1,0-3.406-3.406A3.429,3.429,0,0,0,291.106,730.912Z" transform="translate(-250.167 -661.052)" fill="#88c2a9" fill-rule="evenodd"/>
            </g>
          </g>
        </g>
        <g id="Group_21" data-name="Group 21" transform="translate(406.822 341.332)">
          <path id="Path_121" data-name="Path 121" d="M717.619,611.6a48.8,48.8,0,0,1,48.78,48.78c0,1.157-.064,2.249-.129,3.342a43.289,43.289,0,0,1,35.219,31.556,24.436,24.436,0,0,1,12.532,4.884,30.515,30.515,0,0,1,52.893,20.759,29.888,29.888,0,0,1-2.764,12.661H600.264a43.341,43.341,0,0,1,41.453-55.914,48.523,48.523,0,0,1,5.334.321A27.282,27.282,0,0,1,668.9,661.408v-.964A48.672,48.672,0,0,1,717.619,611.6Z" transform="translate(-598.4 -611.6)" fill="#96c9b3" fill-rule="evenodd"/>
          <g id="Group_20" data-name="Group 20" transform="translate(12.404 9.255)">
            <path id="Path_122" data-name="Path 122" d="M640.644,732a22.409,22.409,0,0,1,9.062,1.864,15.93,15.93,0,0,1,14.4-9.126,13,13,0,0,1,2.764.257,25.443,25.443,0,0,1,25.129-21.273,26.391,26.391,0,0,1,8.484,1.414,36.815,36.815,0,0,1,67.739,19.988,38.41,38.41,0,0,1-.9,8.226,15.636,15.636,0,0,1,2.442-.193,15.873,15.873,0,0,1,12.083,5.591,20.52,20.52,0,0,1,29.756,7.841,10.718,10.718,0,0,1,2.057-.129,13.906,13.906,0,0,1,13.882,13.882v.707h-209a23.735,23.735,0,0,1-.835-6.106A22.958,22.958,0,0,1,640.644,732Z" transform="translate(-617.7 -648.26)" fill="#88c2a9" fill-rule="evenodd"/>
            <g id="Group_19" data-name="Group 19" transform="translate(1.542)">
              <path id="Path_123" data-name="Path 123" d="M975.405,770.311a7.005,7.005,0,1,0-7.005-7.005A7.022,7.022,0,0,0,975.405,770.311Z" transform="translate(-744.551 -672.558)" fill="#88c2a9" fill-rule="evenodd"/>
              <path id="Path_124" data-name="Path 124" d="M886.884,747.369A4.884,4.884,0,1,0,882,742.484,4.882,4.882,0,0,0,886.884,747.369Z" transform="translate(-713.68 -665.876)" fill="#88c2a9" fill-rule="evenodd"/>
              <path id="Path_125" data-name="Path 125" d="M783.405,640.011a7.005,7.005,0,1,0-7.005-7.005A7.022,7.022,0,0,0,783.405,640.011Z" transform="translate(-675.948 -626)" fill="#88c2a9" fill-rule="evenodd"/>
              <path id="Path_126" data-name="Path 126" d="M739.805,663.911a7.005,7.005,0,1,0-7.005-7.005A7.022,7.022,0,0,0,739.805,663.911Z" transform="translate(-660.369 -634.54)" fill="#88c2a9" fill-rule="evenodd"/>
              <path id="Path_127" data-name="Path 127" d="M625.884,748.068a5.784,5.784,0,1,0-5.784-5.784A5.76,5.76,0,0,0,625.884,748.068Z" transform="translate(-620.1 -665.483)" fill="#88c2a9" fill-rule="evenodd"/>
              <path id="Path_128" data-name="Path 128" d="M796.97,670.741a4.37,4.37,0,1,0-4.37-4.37A4.375,4.375,0,0,0,796.97,670.741Z" transform="translate(-681.736 -638.863)" fill="#88c2a9" fill-rule="evenodd"/>
              <path id="Path_129" data-name="Path 129" d="M774.585,665.77a2.185,2.185,0,1,0-2.185-2.185A2.208,2.208,0,0,0,774.585,665.77Z" transform="translate(-674.518 -638.649)" fill="#88c2a9" fill-rule="evenodd"/>
              <path id="Path_130" data-name="Path 130" d="M730.485,682.47a2.185,2.185,0,1,0-2.185-2.185A2.208,2.208,0,0,0,730.485,682.47Z" transform="translate(-658.761 -644.616)" fill="#88c2a9" fill-rule="evenodd"/>
              <path id="Path_131" data-name="Path 131" d="M654.085,739.17a2.185,2.185,0,1,0-2.185-2.185A2.167,2.167,0,0,0,654.085,739.17Z" transform="translate(-631.462 -664.875)" fill="#88c2a9" fill-rule="evenodd"/>
              <path id="Path_132" data-name="Path 132" d="M832.885,669.97a2.185,2.185,0,1,0-2.185-2.185A2.3,2.3,0,0,0,832.885,669.97Z" transform="translate(-695.35 -640.149)" fill="#88c2a9" fill-rule="evenodd"/>
              <path id="Path_133" data-name="Path 133" d="M864.885,723.67a2.185,2.185,0,1,0-2.185-2.185A2.167,2.167,0,0,0,864.885,723.67Z" transform="translate(-706.784 -659.337)" fill="#88c2a9" fill-rule="evenodd"/>
              <path id="Path_134" data-name="Path 134" d="M851.806,705.713a3.406,3.406,0,1,0-3.406-3.406A3.429,3.429,0,0,0,851.806,705.713Z" transform="translate(-701.674 -652.048)" fill="#88c2a9" fill-rule="evenodd"/>
              <path id="Path_135" data-name="Path 135" d="M719.306,701.313a3.406,3.406,0,1,0-3.406-3.406A3.472,3.472,0,0,0,719.306,701.313Z" transform="translate(-654.33 -650.476)" fill="#88c2a9" fill-rule="evenodd"/>
              <path id="Path_136" data-name="Path 136" d="M681.906,730.912a3.406,3.406,0,1,0-3.406-3.406A3.387,3.387,0,0,0,681.906,730.912Z" transform="translate(-640.967 -661.052)" fill="#88c2a9" fill-rule="evenodd"/>
            </g>
          </g>
        </g>
        <path id="Path_137" data-name="Path 137" d="M710.083,818.6H690.738a5.431,5.431,0,0,0-5.4,5.4h0a5.431,5.431,0,0,0,5.4,5.4h8.1a4.306,4.306,0,0,1,4.306,4.306h0A4.306,4.306,0,0,1,698.836,838H-16.026a4.306,4.306,0,0,1-4.306-4.306h0a4.306,4.306,0,0,1,4.306-4.306h7.712a5.431,5.431,0,0,0,5.4-5.4h0a5.431,5.431,0,0,0-5.4-5.4H-26.052a8.585,8.585,0,0,1-8.548-8.548h0a8.585,8.585,0,0,1,8.548-8.548H710.019a8.585,8.585,0,0,1,8.548,8.548h0a8.489,8.489,0,0,1-8.484,8.548ZM710.4,838A4.306,4.306,0,1,0,706.1,833.7,4.306,4.306,0,0,0,710.4,838Z" transform="translate(34.6 -338.122)" fill="#367159" fill-rule="evenodd"/>
      </g>
    </g>
    <g id="object" transform="translate(256.345 266.108)">
      <g id="Group_23" data-name="Group 23" transform="translate(0 0)">
        <path id="Path_138" data-name="Path 138" d="M431,499.2l10.733,205.6a10.3,10.3,0,0,0,10.347,9.962h127a10.349,10.349,0,0,0,10.347-9.962l10.733-205.6H431Z" transform="translate(-422.709 -415.715)" fill="#3b455a"/>
        <rect id="Rectangle_6" data-name="Rectangle 6" width="185.673" height="22.751" transform="translate(0 60.734)" fill="#212630"/>
        <path id="Path_139" data-name="Path 139" d="M600.156,430.034H431L444.111,369.3H587.045Z" transform="translate(-422.709 -369.3)" fill="#3b455a"/>
        <path id="Path_140" data-name="Path 140" d="M578.374,429.521h-92.29a8.475,8.475,0,0,1-8.483-8.484V408.183a8.475,8.475,0,0,1,8.483-8.484h92.29a8.475,8.475,0,0,1,8.484,8.484v12.854a8.475,8.475,0,0,1-8.484,8.484" transform="translate(-439.36 -380.162)" fill="#ccd2d9"/>
        <path id="Path_141" data-name="Path 141" d="M493.242,1081.213a3.058,3.058,0,0,0-.321-.9c-.129-.321-.643-1.157-1.221-2.314Z" transform="translate(-444.398 -622.527)" fill="#fff"/>
        <path id="Path_142" data-name="Path 142" d="M561,608.378l5.913,1.735c2.121.643,5.527,1.671,7.584,2.249l5.913,1.735a3.686,3.686,0,0,0,4.692-2.828l1.35-6.106c.45-2.185,1.285-5.72,1.735-7.905l1.35-6.106c.514-2.185-.9-2.892-3.021-1.607l-3.728,2.249c-1.35-2.378-2.7-4.692-3.213-5.591-1.221-1.928-3.471-3.471-7.969-3.406-3.342,0-12.211.064-17.8.129l7.455,13.368a2.309,2.309,0,0,1,.45.643c.386.707,1.671,3.278,3.021,5.784l-3.6,2.185c-2.121,1.285-2.185,2.892-.129,3.47" transform="translate(-466.587 -445.585)" fill="#fff"/>
        <path id="Path_143" data-name="Path 143" d="M528.94,587.435c-1.928,2.956-6.748,10.861-6.748,10.861a3.726,3.726,0,0,0,1.221,5.141l11.89,7.134a3.793,3.793,0,0,0,5.142-1.35s6.684-11.247,7.327-12.275c.643-1.093,1.414-1.221,2.057-.578L542.307,583H538c-3.085.064-6.62.578-9.062,4.435" transform="translate(-455.095 -445.657)" fill="#fff"/>
        <path id="Path_144" data-name="Path 144" d="M498.9,651.3c1.35,2.635,5.013,9.512,7.776,14.525l8.419-14.075c.964-1.735,2.828-4.949,4.37-7.584l4.306,2.442c2.185,1.221,3.535.514,3.021-1.671l-1.478-6.106c-.514-2.185-1.414-5.72-1.928-7.841l-1.478-6.106a3.656,3.656,0,0,0-4.756-2.7l-5.848,1.928c-2.057.707-5.463,1.8-7.584,2.442l-5.848,1.928c-2.057.707-1.992,2.249.193,3.471l3.149,1.8c-1.607,3.213-3.535,7.005-3.985,8.1-.964,1.928-.386,5.334,1.671,9.448" transform="translate(-446.068 -459.588)" fill="#fff"/>
        <path id="Path_145" data-name="Path 145" d="M520.819,668.3,512.4,682.375c1.542,2.764,2.7,5.013,3.021,5.656.9,1.735,2.185,5.077,10.219,5.077,8.034-.064,11.7-.064,11.7-.064A3.69,3.69,0,0,0,541,689.252l-.064-14.075a3.745,3.745,0,0,0-3.728-3.792s-13.689.064-15.939.064c-1.414,0-1.607-.964-1.093-1.864a4.387,4.387,0,0,1,.643-1.285" transform="translate(-451.794 -476.136)" fill="#fff"/>
        <path id="Path_146" data-name="Path 146" d="M597.36,655.689l6.941,14.2c2.442-4.563,6.555-12.532,8.291-16,2.249-4.627,2.892-8.612,1.864-10.733s-6.17-12.34-6.17-12.34A3.394,3.394,0,0,0,603.4,629.4l-11.826,7.455a4.056,4.056,0,0,0-1.35,5.334l5.591,10.283c.643,1.157,1.093,1.992,1.221,2.314a2.181,2.181,0,0,1,.321.9" transform="translate(-479.426 -462.047)" fill="#fff"/>
        <path id="Path_147" data-name="Path 147" d="M591.782,684.907c.257-.45.9-1.671,1.735-3.214l-6.941-14.2c.129.836-.257,1.414-1.285,1.414-.707,0-4.049,0-7.2.064l-.064-4.435c0-2.571-1.35-3.406-2.892-1.864l-4.435,4.37c-1.607,1.542-4.177,4.049-5.72,5.591L560.548,677a3.846,3.846,0,0,0,.064,5.591l4.5,4.242c1.607,1.542,4.242,3.985,5.848,5.527l4.5,4.242c1.607,1.542,2.892.643,2.892-1.928l-.064-4.177c1.735,0,3.728,0,5.527-.064,4.949,0,6.877-3.663,7.969-5.527" transform="translate(-468.579 -473.848)" fill="#fff"/>
      </g>
    </g>
    <g id="Layer_4" transform="translate(395.001 110.385)">
      <g id="Group_41" data-name="Group 41" transform="translate(0 0)">
        <path id="Path_148" data-name="Path 148" d="M712.027,423.046l5.784-1.928L714.919,408.2l-9.319,3.213Z" transform="translate(-659.483 -227.476)" fill="#ffa58d"/>
        <path id="Path_149" data-name="Path 149" d="M718.563,411.436c10.09-.193,55.721-6.62,66.711-17.417-4.692-8.226-8.548-18.188-17.674-17.16-15.232,1.35-53.6,19.795-53.6,19.795Z" transform="translate(-662.484 -216.251)" fill="#30357f"/>
        <path id="Path_150" data-name="Path 150" d="M793.542,284.6s22.494,11.376,23.908,32.006c.9,13.111,1.093,33.677-5.977,43-4.049,5.334-15.617-6.941-20.952-7.005C782.68,316.22,788.143,295.4,793.542,284.6Z" transform="translate(-688.425 -183.312)" fill="#30357f"/>
        <g id="Group_29" data-name="Group 29" transform="translate(0 181.844)">
          <path id="Path_151" data-name="Path 151" d="M686.7,415.434c2.314-.707,9.19-3.792,13.3-2.506,2.506.771,4.177,4.37,4.82,7.134,4.177,3.406-1.8,14.46-1.8,14.46l-15.424-11.5Z" transform="translate(-652.729 -410.899)" fill="#ffa58d"/>
          <g id="Group_25" data-name="Group 25">
            <g id="Group_24" data-name="Group 24">
              <path id="Path_152" data-name="Path 152" d="M637.093,410.558l-3.149,6.748a1.135,1.135,0,0,0,.514,1.478l5.334,2.442,4.049-8.741-5.334-2.442A1.081,1.081,0,0,0,637.093,410.558Z" transform="translate(-633.843 -409.943)" fill="#3f964f"/>
              <path id="Path_153" data-name="Path 153" d="M702.227,432.456s-37.469-18.188-40.618-18.509a13.975,13.975,0,0,0-3.278,0H647.149l-4.049,8.741,7.2,8.484a20.714,20.714,0,0,0,2.121,2.506c2.249,2.185,40.361,19.088,40.361,19.088a2.842,2.842,0,0,0,3.856-1.414s1.928-5.913,2.828-7.777,4.113-7.2,4.113-7.2A2.821,2.821,0,0,0,702.227,432.456Z" transform="translate(-637.151 -411.339)" fill="#fff"/>
            </g>
          </g>
          <g id="Group_28" data-name="Group 28" transform="translate(22.015 23.166)">
            <g id="Group_27" data-name="Group 27">
              <g id="Group_26" data-name="Group 26">
                <path id="Path_154" data-name="Path 154" d="M681.724,448.759c1.928-.514,4.5,1.157,5.527,3.663a.141.141,0,0,0,.064.193c.193-.193.386-.193.707-.321a4.267,4.267,0,0,1,4.37,2.7c.643,1.8,0,3.6-1.735,3.92a4.115,4.115,0,0,1-3.985-1.735,2.494,2.494,0,0,1-1.285.707,4.741,4.741,0,0,1-4.306-1.864c-.321.129-.578.193-.9.321-1.735.321-4.049-.964-5.206-3.149a2.551,2.551,0,0,1-1.285.707,5.1,5.1,0,0,1-5.206-3.149c-.964-2.121-.064-4.242,1.992-4.692a4.747,4.747,0,0,1,4.627,1.928,2.987,2.987,0,0,1,1.35-.836,4.741,4.741,0,0,1,4.306,1.864A4.228,4.228,0,0,0,681.724,448.759Z" transform="translate(-668.097 -445.988)" fill="#ffa58d"/>
              </g>
            </g>
          </g>
          <path id="Path_155" data-name="Path 155" d="M685.1,416.982c1.864-.321,3.792,1.735,4.306,4.627s-.514,5.527-2.378,5.848-3.792-1.735-4.306-4.627C682.212,420,683.241,417.367,685.1,416.982Z" transform="translate(-651.263 -412.446)" fill="#ffa58d"/>
        </g>
        <path id="Path_156" data-name="Path 156" d="M823.649,461.1l52.7,27.7s-43,81.107-67.739,106.236c-4.306,4.37-28.985-2.442-30.721-7.648C771.4,568.3,823.649,461.1,823.649,461.1Z" transform="translate(-685.113 -246.378)" fill="#3c3f73"/>
        <path id="Path_157" data-name="Path 157" d="M780.112,737.109h33.741c2.378-23.715,4.949-63.369-.257-88.562h0c-.321-1.671-.707-3.213-1.157-4.756a29.53,29.53,0,0,0-8.355-12.468c-8.933-7.455-20.759-5.784-26.157,4.049a.487.487,0,0,0-.129.257l-.193,1.928v.064c-.129,1.671-.257,3.342-.321,5.077h0C776.256,662.943,779.341,689.036,780.112,737.109Z" transform="translate(-685.022 -305.544)" fill="#3c3f73"/>
        <path id="Path_158" data-name="Path 158" d="M867.5,472.1l63.112-15.3s2.635,102.509-5.013,136.957c-1.35,5.977-23.522,12.789-27.828,9.255C882.153,590.158,867.5,472.1,867.5,472.1Z" transform="translate(-717.331 -244.841)" fill="#494c7f"/>
        <path id="Path_159" data-name="Path 159" d="M902.52,651.761v.129c4.949,18.574,7.07,38.111,22.494,87.47h30.849c-1.478-22.558-5.527-64.719-16.646-89.012a69.461,69.461,0,0,0-3.856-7.262C923.665,625.153,900.335,632.994,902.52,651.761Z" transform="translate(-729.793 -307.794)" fill="#494c7f"/>
        <g id="v_2_" transform="translate(105.085 87.149)">
          <path id="h-5_1_" d="M863.194,262.6l-48.2,7.005-17.61,7.134c-.964,27.893,20.566,127.445,20.566,127.445s31.17,11.633,49.616,11.761c25.322.257,44.667-13.5,44.667-13.5.964-29.5-6.234-66-18.7-103.087C888.773,285.223,876.176,267.677,863.194,262.6Z" transform="translate(-797.351 -262.6)" fill="#2c2858"/>
        </g>
        <g id="Group_35" data-name="Group 35" transform="translate(95.137)">
          <path id="v-2_1_" d="M844.883,232.235h0l-11.633.964-.45,27.7s.129,6.555,12.083,7.519c10.219.835,16-9.64,16-9.64L856.322,231.4Z" transform="translate(-800.069 -164.303)" fill="#e2816d"/>
          <g id="Group_34" data-name="Group 34">
            <path id="Path_160" data-name="Path 160" d="M842.7,180.075c1.221,20.116-8.355,36.955-24.165,37.919s-29.564-14.589-30.785-34.705,10.6-37.212,26.414-38.111C829.976,144.213,841.481,159.958,842.7,180.075Z" transform="translate(-783.942 -133.48)" fill="#ffa58d"/>
            <path id="Path_161" data-name="Path 161" d="M815.42,209.7c-2.121,4.242-4.82,9.448-4.82,9.448s1.864,4.049,7.455,3.6c-2.442-.771-4.949-2.121-4.242-5.334C814.456,214.135,815.42,209.7,815.42,209.7Z" transform="translate(-792.137 -156.55)" fill="#e2816d"/>
            <path id="Path_162" data-name="Path 162" d="M846.159,156.371c-1.928-19.024-20.309-21.787-20.309-21.787s3.6-2.121,1.542-7.584a15.543,15.543,0,0,1-8.8,3.92c-21.787,2.057-34.512,8.162-30.785,16.132,1.35,2.828-12.211,7.07-2.249,25.643.9-2.571.386-11.568,4.113-14.332,3.792-2.764,2.635,4.563,11.89,1.671,9.319-2.892,14.718-8.1,22.43-5.656,6.234,2.314,17.545,23.715,17.545,25.322C841.6,175.973,846.994,164.726,846.159,156.371Z" transform="translate(-781.872 -127)" fill="#181b47"/>
            <path id="Path_163" data-name="Path 163" d="M790.8,212.66s3.856,10.283,6.748,12.725c-.386-4.692,10.219-3.728,14.653-4.242,8.034-.836,14.718-9.448,19.409.45,13.561-1.221,9.576-24.294,9.576-24.294,5.463,17.16,3.985,41.518-22.173,46.4C802.24,246.916,790.993,229.37,790.8,212.66Z" transform="translate(-785.062 -152.119)" fill="#181b47"/>
            <g id="Group_30" data-name="Group 30" transform="translate(4.585 44.203)">
              <path id="Path_164" data-name="Path 164" d="M790.609,202.026a1.45,1.45,0,0,0,1.093-.835,4.251,4.251,0,0,1,2.249-2.442,5.142,5.142,0,0,1,3.471.321,1.38,1.38,0,1,0,1.285-2.442,7.779,7.779,0,0,0-5.656-.514,6.722,6.722,0,0,0-3.92,3.92,1.341,1.341,0,0,0,.707,1.8A.889.889,0,0,0,790.609,202.026Z" transform="translate(-789.006 -195.778)" fill="#181b47"/>
            </g>
            <g id="Group_31" data-name="Group 31" transform="translate(27.833 39.801)">
              <path id="Path_165" data-name="Path 165" d="M835.733,193.795a1.192,1.192,0,0,0,.771-.45,1.342,1.342,0,0,0-.129-1.928c-2.185-1.864-4.37-2.7-6.555-2.442a6.574,6.574,0,0,0-4.37,2.442,1.375,1.375,0,1,0,2.185,1.671,3.83,3.83,0,0,1,2.507-1.35,5.776,5.776,0,0,1,4.37,1.864A1.663,1.663,0,0,0,835.733,193.795Z" transform="translate(-825.179 -188.929)" fill="#181b47"/>
            </g>
            <g id="Group_33" data-name="Group 33" transform="translate(54.507 41.182)">
              <path id="Path_166" data-name="Path 166" d="M868.558,195.077c-2.764,3.856-2.442,8.8.771,11.054,3.149,2.249,7.969.964,10.669-2.892,2.764-3.856,2.442-8.8-.771-11.054C876.142,189.935,871.321,191.221,868.558,195.077Z" transform="translate(-866.683 -191.078)" fill="#ffa58d"/>
              <g id="Group_32" data-name="Group 32" transform="translate(4.059 3.997)">
                <path id="Path_167" data-name="Path 167" d="M875.7,206.232a.694.694,0,0,1-.45-.193c-1.928-1.414-2.7-3.406-1.992-5.4a5.021,5.021,0,0,1,4.692-3.342,1.061,1.061,0,1,1-.064,2.121,3.03,3.03,0,0,0-2.7,1.992c-.386,1.093.064,2.185,1.285,3.085a1.027,1.027,0,0,1,.193,1.478A1.161,1.161,0,0,1,875.7,206.232Z" transform="translate(-872.998 -197.297)" fill="#e2816d"/>
              </g>
            </g>
            <path id="Path_168" data-name="Path 168" d="M828.639,205.281a3,3,0,1,1,4.242.129A2.968,2.968,0,0,1,828.639,205.281Z" transform="translate(-798.286 -153.159)"/>
            <path id="Path_169" data-name="Path 169" d="M800.313,210.142a2.774,2.774,0,1,1,.129-3.92A2.815,2.815,0,0,1,800.313,210.142Z" transform="translate(-786.799 -154.999)"/>
          </g>
        </g>
        <g id="Group_37" data-name="Group 37" transform="translate(154.285 87.213)">
          <g id="Group_36" data-name="Group 36" transform="translate(0 78.123)">
            <path id="Path_170" data-name="Path 170" d="M911.563,400.416c-2.185-3.406-1.864-7.712-4.37-9.576-1.478-1.093-4.884-.193-7.969-.964-2.956-.707-4.306-3.6-7.776-5.013-2.828-1.093-4.242-.578-4.756.514l4.627,6.234c.9,1.928-.321,5.206-7.519,10.283-5.527,3.856-10.99,4.563-9.7,8.034.835,2.249,3.792.257,7.648-2.249-3.92,4.242-5.72,2.764-4.949,5.72.9,3.535,8.291-1.35,11.5-4.306-3.085,5.656-8.612,5.077-8.034,7.327.835,2.571,5.977,2.507,10.476-3.149-3.149,5.72-6.62,4.884-5.591,6.877,1.093,2.121,10.412-.386,17.16-7.648C904.108,410.763,911.563,400.416,911.563,400.416Z" transform="translate(-873.905 -384.257)" fill="#ffa58d"/>
          </g>
          <path id="Path_171" data-name="Path 171" d="M896.926,262.7s42.546,11.633,71.853,54.5c-10.219,20.309-25.9,11.5-25.9,11.5l-41.518-23.33s-10.733-10.99-10.861-25.065C890.37,266.685,896.926,262.7,896.926,262.7Z" transform="translate(-879.833 -262.7)" fill="#30357f"/>
          <path id="Path_172" data-name="Path 172" d="M915.8,371.754,951.855,342.9s7.776-13.175,25.965.964c-2.635,11.376-12.725,31.427-50.451,42.482C921.906,382.294,915.8,371.754,915.8,371.754Z" transform="translate(-888.874 -289.362)" fill="#30357f"/>
        </g>
        <g id="Group_38" data-name="Group 38" transform="translate(115.413 69.833)">
          <path id="Path_173" data-name="Path 173" d="M819.835,243.2a18.229,18.229,0,0,1-5.527-.9,1.384,1.384,0,1,1,1.028-2.571,12.964,12.964,0,0,0,14.011-3.6A1.412,1.412,0,1,1,831.467,238a15.346,15.346,0,0,1-11.311,5.27A.7.7,0,0,0,819.835,243.2Z" transform="translate(-813.422 -235.658)" fill="#e2816d"/>
        </g>
        <g id="Group_39" data-name="Group 39" transform="translate(45.662 198.976)">
          <path id="Path_174" data-name="Path 174" d="M705.733,450.032a1.192,1.192,0,0,0,.45-.129c5.334-3.471,6.041-12.018,6.041-12.4a.85.85,0,0,0-.771-.9.9.9,0,0,0-.9.771h0c0,.064-.643,8.1-5.27,11.118a.837.837,0,0,0-.257,1.157A.738.738,0,0,0,705.733,450.032Z" transform="translate(-704.892 -436.6)" fill="#e3eaff"/>
        </g>
        <g id="Group_40" data-name="Group 40" transform="translate(15.475 186.051)">
          <path id="Path_175" data-name="Path 175" d="M658.743,432.885a.73.73,0,0,0,.514-.193c7.07-5.784,7.905-14.91,7.969-15.3a.838.838,0,1,0-1.671-.129h0c0,.064-.771,8.8-7.327,14.139a.826.826,0,0,0-.129,1.157A.653.653,0,0,0,658.743,432.885Z" transform="translate(-657.921 -416.489)" fill="#e3eaff"/>
        </g>
      </g>
    </g>
    <g id="Layer_5" transform="translate(318.622 289.052)">
      <circle id="Ellipse_6" data-name="Ellipse 6" cx="11.568" cy="11.568" r="11.568" fill="#fff" stroke="#000" stroke-miterlimit="10" stroke-width="1"/>
      <circle id="Ellipse_7" data-name="Ellipse 7" cx="11.568" cy="11.568" r="11.568" transform="translate(37.919)" fill="#fff" stroke="#000" stroke-miterlimit="10" stroke-width="1"/>
      <ellipse id="Ellipse_8" data-name="Ellipse 8" cx="7.07" cy="9.64" rx="7.07" ry="9.64" transform="translate(46.916 1.928)"/>
      <ellipse id="Ellipse_9" data-name="Ellipse 9" cx="7.07" cy="9.64" rx="7.07" ry="9.64" transform="translate(8.998 1.928)"/>
      <ellipse id="Ellipse_10" data-name="Ellipse 10" cx="2.506" cy="3.471" rx="2.506" ry="3.471" transform="translate(47.688 4.563)" fill="#fff"/>
      <ellipse id="Ellipse_11" data-name="Ellipse 11" cx="2.506" cy="3.471" rx="2.506" ry="3.471" transform="translate(9.64 4.563)" fill="#fff"/>
    </g>
  </g>
</svg>
